<?xml version="1.0" encoding="utf-8" standalone="no"?>
<!DOCTYPE svg PUBLIC "-//W3C//DTD SVG 1.1//EN"
  "http://www.w3.org/Graphics/SVG/1.1/DTD/svg11.dtd">
<!-- Created with matplotlib (http://matplotlib.org/) -->
<svg height="432" version="1.1" viewBox="0 0 576 432" width="576" xmlns="http://www.w3.org/2000/svg" xmlns:xlink="http://www.w3.org/1999/xlink">
 <defs>
  <style type="text/css">
*{stroke-linecap:butt;stroke-linejoin:round;}
  </style>
 </defs>
 <g id="figure_1">
  <g id="patch_1">
   <path d="
M0 432
L576 432
L576 0
L0 0
z
" style="fill:#ffffff;"/>
  </g>
  <g id="axes_1">
   <g id="patch_2">
    <path d="
M72 388.8
L518.4 388.8
L518.4 43.2
L72 43.2
z
" style="fill:#ffffff;"/>
   </g>
   <g id="line2d_1">
    <path clip-path="url(#p7ff5b81e1d)" d="
M74.2099 350.817
L78.6297 351.443
L83.0495 351.688
L87.4693 352.188
L91.8891 352.113
L96.3089 352.643
L100.729 353.042
L105.149 353.868
L109.568 354.012
L113.988 354.084
L118.408 354.937
L122.828 354.655
L127.248 355.778
L131.667 355.855
L136.087 356.068
L140.507 356.214
L144.927 356.715
L149.347 357.581
L153.766 357.869
L158.186 357.942
L162.606 358.37
L167.026 358.869
L171.446 358.865
L175.865 359.555
L180.285 360.152
L184.705 360.666
L189.125 360.584
L193.545 361.254
L197.964 361.24
L202.384 362.346
L206.804 362.07
L211.224 362.686
L215.644 362.92
L220.063 363.661
L224.483 363.681
L228.903 364.115
L233.323 364.714
L237.743 365.105
L242.162 365.391
L246.582 365.493
L251.002 366.342
L255.422 366.547
L259.842 366.795
L264.261 367.041
L268.681 367.49
L273.101 367.976
L277.521 368.187
L281.941 368.617
L286.36 369.22
L290.78 369.469
L295.2 369.913
L299.62 369.827
L304.04 370.873
L308.459 370.946
L312.879 370.898
L317.299 371.539
L321.719 372.115
L326.139 372.238
L330.558 372.749
L334.978 373.185
L339.398 373.567
L343.818 373.667
L348.238 374.333
L352.657 374.93
L357.077 374.953
L361.497 375.341
L365.917 375.888
L370.337 375.852
L374.756 376.623
L379.176 376.967
L383.596 377.608
L388.016 377.933
L392.436 378.088
L396.855 378.624
L401.275 378.812
L405.695 378.912
L410.115 379.661
L414.535 379.932
L418.954 380.358
L423.374 380.813
L427.794 381.128
L432.214 381.56
L436.634 382.172
L441.053 382.548
L445.473 382.689
L449.893 383.096
L454.313 383.188
L458.733 383.654
L463.152 384.144
L467.572 384.541
L471.992 384.768
L476.412 385.192
L480.832 385.576
L485.251 386.004
L489.671 386.323
L494.091 386.723
L498.511 387.147
L502.931 387.546
L507.35 387.863
L511.77 388.26
L516.19 388.606" style="fill:none;stroke:#0000ff;stroke-linecap:square;"/>
   </g>
   <g id="line2d_2">
    <path clip-path="url(#p7ff5b81e1d)" d="
M74.2099 387.562
L78.6297 385.396
L83.0495 383.186
L87.4693 380.97
L91.8891 379.14
L96.3089 376.965
L100.729 375.241
L105.149 373.442
L109.568 371.983
L113.988 370.435
L118.408 368.317
L122.828 366.799
L127.248 365.384
L131.667 363.999
L136.087 362.784
L140.507 361.567
L144.927 360.497
L149.347 359.935
L153.766 358.541
L158.186 357.602
L162.606 356.648
L167.026 356.001
L171.446 355.348
L175.865 355.121
L180.285 353.871
L184.705 353.084
L189.125 353.639
L193.545 352.787
L197.964 352.118
L202.384 351.876
L206.804 351.84
L211.224 351.433
L215.644 351.337
L220.063 351.043
L224.483 351.619
L228.903 351.56
L233.323 351.721
L237.743 351.266
L242.162 351.617
L246.582 351.623
L251.002 352.543
L255.422 352.792
L259.842 352.913
L264.261 352.948
L268.681 354.284
L273.101 354.052
L277.521 355.11
L281.941 355.788
L286.36 356.377
L290.78 357.168
L295.2 358.051
L299.62 358.522
L304.04 359.359
L308.459 360.566
L312.879 361.517
L317.299 361.82
L321.719 363.608
L326.139 364.132
L330.558 364.861
L334.978 366.534
L339.398 367.59
L343.818 368.532
L348.238 369.886
L352.657 370.792
L357.077 372.401
L361.497 373.231
L365.917 374.475
L370.337 375.85
L374.756 377.115
L379.176 378.591
L383.596 380.235
L388.016 381.162
L392.436 382.147
L396.855 383.098
L401.275 383.879
L405.695 384.476
L410.115 385.242
L414.535 385.457
L418.954 386.008
L423.374 386.45
L427.794 386.734
L432.214 387.114
L436.634 387.379
L441.053 387.617
L445.473 387.825
L449.893 387.93
L454.313 388.163
L458.733 388.28
L463.152 388.391
L467.572 388.462
L471.992 388.575
L476.412 388.633
L480.832 388.683
L485.251 388.7
L489.671 388.742
L494.091 388.764
L498.511 388.771
L502.931 388.787
L507.35 388.794
L511.77 388.796
L516.19 388.8" style="fill:none;stroke:#008000;stroke-linecap:square;"/>
   </g>
   <g id="line2d_3">
    <path clip-path="url(#p7ff5b81e1d)" d="
M74.2099 388.75
L78.6297 388.514
L83.0495 388.122
L87.4693 387.446
L91.8891 386.577
L96.3089 385.515
L100.729 384.386
L105.149 383.142
L109.568 381.842
L113.988 380.314
L118.408 378.682
L122.828 377.207
L127.248 375.216
L131.667 373.396
L136.087 371.827
L140.507 370.005
L144.927 368.066
L149.347 366.382
L153.766 364.224
L158.186 362.7
L162.606 360.979
L167.026 359.094
L171.446 357.147
L175.865 355.367
L180.285 354.065
L184.705 352.404
L189.125 351.108
L193.545 349.609
L197.964 347.908
L202.384 346.932
L206.804 345.738
L211.224 344.92
L215.644 344.567
L220.063 343.135
L224.483 342.52
L228.903 342.033
L233.323 342.177
L237.743 341.182
L242.162 341.578
L246.582 340.959
L251.002 341.017
L255.422 341.633
L259.842 341.912
L264.261 342.611
L268.681 342.977
L273.101 343.582
L277.521 344.214
L281.941 345.356
L286.36 346.656
L290.78 348.23
L295.2 349.515
L299.62 350.838
L304.04 352.9
L308.459 354.109
L312.879 356.778
L317.299 358.883
L321.719 360.693
L326.139 362.997
L330.558 365.835
L334.978 368.154
L339.398 370.226
L343.818 372.294
L348.238 373.968
L352.657 375.863
L357.077 377.242
L361.497 378.664
L365.917 380.164
L370.337 381.229
L374.756 382.368
L379.176 383.324
L383.596 384.142
L388.016 384.935
L392.436 385.455
L396.855 386.164
L401.275 386.563
L405.695 387.012
L410.115 387.42
L414.535 387.767
L418.954 388.032
L423.374 388.168
L427.794 388.376
L432.214 388.449
L436.634 388.558
L441.053 388.608
L445.473 388.658
L449.893 388.71
L454.313 388.729
L458.733 388.756
L463.152 388.767
L467.572 388.788
L471.992 388.79
L476.412 388.79
L480.832 388.798
L485.251 388.798
L489.671 388.8
L494.091 388.8
L498.511 388.798
L502.931 388.8
L507.35 388.8
L511.77 388.8
L516.19 388.8" style="fill:none;stroke:#ff0000;stroke-linecap:square;"/>
   </g>
   <g id="line2d_4">
    <path clip-path="url(#p7ff5b81e1d)" d="
M74.2099 388.8
L78.6297 388.785
L83.0495 388.721
L87.4693 388.618
L91.8891 388.31
L96.3089 388.038
L100.729 387.469
L105.149 386.893
L109.568 386.164
L113.988 385.26
L118.408 384.117
L122.828 382.861
L127.248 381.606
L131.667 379.926
L136.087 378.119
L140.507 376.606
L144.927 374.536
L149.347 372.553
L153.766 370.56
L158.186 368.344
L162.606 365.48
L167.026 363.727
L171.446 361.446
L175.865 358.758
L180.285 356.454
L184.705 354.255
L189.125 351.469
L193.545 348.902
L197.964 347.048
L202.384 344.557
L206.804 342.795
L211.224 340.86
L215.644 339.389
L220.063 337.465
L224.483 335.664
L228.903 335.495
L233.323 333.132
L237.743 332.949
L242.162 332.415
L246.582 331.488
L251.002 331.519
L255.422 331.611
L259.842 332.029
L264.261 332.243
L268.681 333.247
L273.101 334.986
L277.521 335.795
L281.941 338.243
L286.36 340.502
L290.78 342.672
L295.2 345.379
L299.62 348.242
L304.04 351.149
L308.459 354.566
L312.879 357.567
L317.299 360.624
L321.719 363.178
L326.139 365.806
L330.558 368.519
L334.978 371.184
L339.398 373.208
L343.818 375.381
L348.238 377.272
L352.657 378.995
L357.077 380.6
L361.497 382.118
L365.917 383.182
L370.337 384.315
L374.756 385.146
L379.176 385.999
L383.596 386.508
L388.016 387.018
L392.436 387.446
L396.855 387.784
L401.275 387.926
L405.695 388.262
L410.115 388.356
L414.535 388.476
L418.954 388.604
L423.374 388.637
L427.794 388.675
L432.214 388.712
L436.634 388.756
L441.053 388.771
L445.473 388.783
L449.893 388.794
L454.313 388.794
L458.733 388.794
L463.152 388.8
L467.572 388.794
L471.992 388.798
L476.412 388.8
L480.832 388.8
L485.251 388.8
L489.671 388.8
L494.091 388.8
L498.511 388.8
L502.931 388.8
L507.35 388.8
L511.77 388.8
L516.19 388.8" style="fill:none;stroke:#00bfbf;stroke-linecap:square;"/>
   </g>
   <g id="line2d_5">
    <path clip-path="url(#p7ff5b81e1d)" d="
M74.2099 388.8
L78.6297 388.8
L83.0495 388.8
L87.4693 388.8
L91.8891 388.8
L96.3089 388.8
L100.729 388.8
L105.149 388.8
L109.568 388.796
L113.988 388.788
L118.408 388.773
L122.828 388.733
L127.248 388.668
L131.667 388.585
L136.087 388.477
L140.507 388.266
L144.927 387.867
L149.347 387.454
L153.766 386.68
L158.186 385.753
L162.606 384.689
L167.026 383.128
L171.446 381.06
L175.865 378.826
L180.285 375.75
L184.705 372.409
L189.125 368.099
L193.545 363.037
L197.964 358.41
L202.384 352.466
L206.804 345.886
L211.224 338.915
L215.644 332.079
L220.063 325.359
L224.483 317.829
L228.903 311.03
L233.323 305.186
L237.743 301.11
L242.162 295.576
L246.582 293.121
L251.002 291.825
L255.422 292.535
L259.842 293.737
L264.261 296.709
L268.681 301.496
L273.101 307.503
L277.521 313.993
L281.941 321.42
L286.36 328.637
L290.78 336.28
L295.2 343.86
L299.62 351.262
L304.04 357.492
L308.459 363.32
L312.879 368.703
L317.299 373.448
L321.719 377.025
L326.139 379.88
L330.558 382.483
L334.978 384.223
L339.398 385.601
L343.818 386.653
L348.238 387.352
L352.657 387.938
L357.077 388.236
L361.497 388.462
L365.917 388.579
L370.337 388.681
L374.756 388.748
L379.176 388.752
L383.596 388.787
L388.016 388.785
L392.436 388.792
L396.855 388.798
L401.275 388.798
L405.695 388.8
L410.115 388.8
L414.535 388.8
L418.954 388.8
L423.374 388.8
L427.794 388.8
L432.214 388.8
L436.634 388.8
L441.053 388.8
L445.473 388.8
L449.893 388.8
L454.313 388.8
L458.733 388.8
L463.152 388.8
L467.572 388.8
L471.992 388.8
L476.412 388.8
L480.832 388.8
L485.251 388.8
L489.671 388.8
L494.091 388.8
L498.511 388.8
L502.931 388.8
L507.35 388.8
L511.77 388.8
L516.19 388.8" style="fill:none;stroke:#bf00bf;stroke-linecap:square;"/>
   </g>
   <g id="line2d_6">
    <path clip-path="url(#p7ff5b81e1d)" d="
M74.2099 388.8
L78.6297 388.8
L83.0495 388.8
L87.4693 388.8
L91.8891 388.8
L96.3089 388.8
L100.729 388.8
L105.149 388.8
L109.568 388.8
L113.988 388.8
L118.408 388.8
L122.828 388.8
L127.248 388.8
L131.667 388.8
L136.087 388.8
L140.507 388.798
L144.927 388.79
L149.347 388.79
L153.766 388.775
L158.186 388.742
L162.606 388.593
L167.026 388.495
L171.446 388.197
L175.865 387.648
L180.285 386.993
L184.705 385.755
L189.125 383.649
L193.545 381.197
L197.964 377.169
L202.384 371.512
L206.804 364.5
L211.224 355.745
L215.644 344.7
L220.063 332.269
L224.483 318.397
L228.903 303.27
L233.323 288.797
L237.743 275.818
L242.162 264.793
L246.582 255.892
L251.002 250.529
L255.422 250.95
L259.842 254.844
L264.261 262.875
L268.681 275.065
L273.101 289.265
L277.521 304.345
L281.941 319.505
L286.36 334.606
L290.78 348.002
L295.2 358.925
L299.62 367.263
L304.04 374.17
L308.459 379.329
L312.879 383.019
L317.299 385.231
L321.719 386.7
L326.139 387.64
L330.558 388.226
L334.978 388.514
L339.398 388.648
L343.818 388.721
L348.238 388.762
L352.657 388.792
L357.077 388.79
L361.497 388.8
L365.917 388.8
L370.337 388.8
L374.756 388.8
L379.176 388.8
L383.596 388.8
L388.016 388.8
L392.436 388.8
L396.855 388.8
L401.275 388.8
L405.695 388.8
L410.115 388.8
L414.535 388.8
L418.954 388.8
L423.374 388.8
L427.794 388.8
L432.214 388.8
L436.634 388.8
L441.053 388.8
L445.473 388.8
L449.893 388.8
L454.313 388.8
L458.733 388.8
L463.152 388.8
L467.572 388.8
L471.992 388.8
L476.412 388.8
L480.832 388.8
L485.251 388.8
L489.671 388.8
L494.091 388.8
L498.511 388.8
L502.931 388.8
L507.35 388.8
L511.77 388.8
L516.19 388.8" style="fill:none;stroke:#bfbf00;stroke-linecap:square;"/>
   </g>
   <g id="line2d_7">
    <path clip-path="url(#p7ff5b81e1d)" d="
M74.2099 388.8
L78.6297 388.8
L83.0495 388.8
L87.4693 388.8
L91.8891 388.8
L96.3089 388.8
L100.729 388.8
L105.149 388.8
L109.568 388.8
L113.988 388.8
L118.408 388.8
L122.828 388.8
L127.248 388.8
L131.667 388.8
L136.087 388.8
L140.507 388.8
L144.927 388.8
L149.347 388.8
L153.766 388.8
L158.186 388.798
L162.606 388.792
L167.026 388.783
L171.446 388.764
L175.865 388.708
L180.285 388.6
L184.705 388.285
L189.125 387.823
L193.545 386.707
L197.964 384.935
L202.384 381.965
L206.804 377.1
L211.224 370.224
L215.644 359.935
L220.063 346.381
L224.483 329.219
L228.903 308.594
L233.323 286.831
L237.743 263.53
L242.162 245.084
L246.582 228.778
L251.002 220.464
L255.422 218.396
L259.842 226.418
L264.261 240.927
L268.681 261.105
L273.101 284.964
L277.521 307.484
L281.941 327.982
L286.36 346.408
L290.78 360.53
L295.2 371.253
L299.62 378.394
L304.04 382.986
L308.459 385.692
L312.879 387.206
L317.299 388.07
L321.719 388.476
L326.139 388.691
L330.558 388.75
L334.978 388.781
L339.398 388.794
L343.818 388.794
L348.238 388.8
L352.657 388.8
L357.077 388.8
L361.497 388.8
L365.917 388.8
L370.337 388.8
L374.756 388.8
L379.176 388.8
L383.596 388.8
L388.016 388.8
L392.436 388.8
L396.855 388.8
L401.275 388.8
L405.695 388.8
L410.115 388.8
L414.535 388.8
L418.954 388.8
L423.374 388.8
L427.794 388.8
L432.214 388.8
L436.634 388.8
L441.053 388.8
L445.473 388.8
L449.893 388.8
L454.313 388.8
L458.733 388.8
L463.152 388.8
L467.572 388.8
L471.992 388.8
L476.412 388.8
L480.832 388.8
L485.251 388.8
L489.671 388.8
L494.091 388.8
L498.511 388.8
L502.931 388.8
L507.35 388.8
L511.77 388.8
L516.19 388.8" style="fill:none;stroke:#000000;stroke-linecap:square;"/>
   </g>
   <g id="line2d_8">
    <path clip-path="url(#p7ff5b81e1d)" d="
M74.2099 388.8
L78.6297 388.8
L83.0495 388.8
L87.4693 388.8
L91.8891 388.8
L96.3089 388.8
L100.729 388.8
L105.149 388.8
L109.568 388.8
L113.988 388.8
L118.408 388.8
L122.828 388.8
L127.248 388.8
L131.667 388.8
L136.087 388.8
L140.507 388.8
L144.927 388.8
L149.347 388.8
L153.766 388.8
L158.186 388.8
L162.606 388.8
L167.026 388.8
L171.446 388.798
L175.865 388.798
L180.285 388.775
L184.705 388.717
L189.125 388.606
L193.545 388.305
L197.964 387.629
L202.384 386.131
L206.804 383.443
L211.224 378.595
L215.644 370.967
L220.063 358.464
L224.483 340.873
L228.903 318.576
L233.323 291.064
L237.743 260.339
L242.162 231.8
L246.582 208.71
L251.002 193.987
L255.422 191.956
L259.842 203.716
L264.261 225.18
L268.681 254.202
L273.101 285.285
L277.521 314.152
L281.941 338.678
L286.36 357.865
L290.78 370.969
L295.2 379.242
L299.62 383.921
L304.04 386.571
L308.459 387.811
L312.879 388.472
L317.299 388.673
L321.719 388.758
L326.139 388.777
L330.558 388.794
L334.978 388.8
L339.398 388.8
L343.818 388.8
L348.238 388.8
L352.657 388.8
L357.077 388.8
L361.497 388.8
L365.917 388.8
L370.337 388.8
L374.756 388.8
L379.176 388.8
L383.596 388.8
L388.016 388.8
L392.436 388.8
L396.855 388.8
L401.275 388.8
L405.695 388.8
L410.115 388.8
L414.535 388.8
L418.954 388.8
L423.374 388.8
L427.794 388.8
L432.214 388.8
L436.634 388.8
L441.053 388.8
L445.473 388.8
L449.893 388.8
L454.313 388.8
L458.733 388.8
L463.152 388.8
L467.572 388.8
L471.992 388.8
L476.412 388.8
L480.832 388.8
L485.251 388.8
L489.671 388.8
L494.091 388.8
L498.511 388.8
L502.931 388.8
L507.35 388.8
L511.77 388.8
L516.19 388.8" style="fill:none;stroke:#0000ff;stroke-linecap:square;"/>
   </g>
   <g id="line2d_9">
    <path clip-path="url(#p7ff5b81e1d)" d="
M74.2099 388.8
L78.6297 388.8
L83.0495 388.8
L87.4693 388.8
L91.8891 388.8
L96.3089 388.8
L100.729 388.8
L105.149 388.8
L109.568 388.8
L113.988 388.8
L118.408 388.8
L122.828 388.8
L127.248 388.8
L131.667 388.8
L136.087 388.8
L140.507 388.8
L144.927 388.8
L149.347 388.8
L153.766 388.8
L158.186 388.8
L162.606 388.8
L167.026 388.8
L171.446 388.8
L175.865 388.8
L180.285 388.796
L184.705 388.781
L189.125 388.756
L193.545 388.662
L197.964 388.458
L202.384 387.865
L206.804 386.486
L211.224 383.482
L215.644 378.094
L220.063 368.039
L224.483 351.32
L228.903 329.163
L233.323 297.391
L237.743 260.396
L242.162 224.367
L246.582 191.942
L251.002 171.725
L255.422 169.116
L259.842 184.71
L264.261 214.712
L268.681 251.299
L273.101 288.73
L277.521 322.188
L281.941 349.02
L286.36 366.449
L290.78 377.284
L295.2 383.616
L299.62 386.813
L304.04 387.992
L308.459 388.508
L312.879 388.689
L317.299 388.767
L321.719 388.787
L326.139 388.8
L330.558 388.8
L334.978 388.8
L339.398 388.8
L343.818 388.8
L348.238 388.8
L352.657 388.8
L357.077 388.8
L361.497 388.8
L365.917 388.8
L370.337 388.8
L374.756 388.8
L379.176 388.8
L383.596 388.8
L388.016 388.8
L392.436 388.8
L396.855 388.8
L401.275 388.8
L405.695 388.8
L410.115 388.8
L414.535 388.8
L418.954 388.8
L423.374 388.8
L427.794 388.8
L432.214 388.8
L436.634 388.8
L441.053 388.8
L445.473 388.8
L449.893 388.8
L454.313 388.8
L458.733 388.8
L463.152 388.8
L467.572 388.8
L471.992 388.8
L476.412 388.8
L480.832 388.8
L485.251 388.8
L489.671 388.8
L494.091 388.8
L498.511 388.8
L502.931 388.8
L507.35 388.8
L511.77 388.8
L516.19 388.8" style="fill:none;stroke:#008000;stroke-linecap:square;"/>
   </g>
   <g id="line2d_10">
    <path clip-path="url(#p7ff5b81e1d)" d="
M74.2099 388.8
L78.6297 388.8
L83.0495 388.8
L87.4693 388.8
L91.8891 388.8
L96.3089 388.8
L100.729 388.8
L105.149 388.8
L109.568 388.8
L113.988 388.8
L118.408 388.8
L122.828 388.8
L127.248 388.8
L131.667 388.8
L136.087 388.8
L140.507 388.8
L144.927 388.8
L149.347 388.8
L153.766 388.8
L158.186 388.8
L162.606 388.8
L167.026 388.8
L171.446 388.8
L175.865 388.8
L180.285 388.798
L184.705 388.8
L189.125 388.794
L193.545 388.767
L197.964 388.712
L202.384 388.491
L206.804 387.769
L211.224 386.227
L215.644 382.276
L220.063 374.788
L224.483 361.043
L228.903 338.362
L233.323 305.278
L237.743 263.604
L242.162 217.812
L246.582 178.067
L251.002 151.636
L255.422 150.102
L259.842 168.672
L264.261 205.315
L268.681 250.631
L273.101 295.056
L277.521 331.571
L281.941 357.176
L286.36 373.304
L290.78 381.838
L295.2 386.135
L299.62 387.769
L304.04 388.508
L308.459 388.723
L312.879 388.787
L317.299 388.792
L321.719 388.798
L326.139 388.8
L330.558 388.8
L334.978 388.8
L339.398 388.8
L343.818 388.8
L348.238 388.8
L352.657 388.8
L357.077 388.8
L361.497 388.8
L365.917 388.8
L370.337 388.8
L374.756 388.8
L379.176 388.8
L383.596 388.8
L388.016 388.8
L392.436 388.8
L396.855 388.8
L401.275 388.8
L405.695 388.8
L410.115 388.8
L414.535 388.8
L418.954 388.8
L423.374 388.8
L427.794 388.8
L432.214 388.8
L436.634 388.8
L441.053 388.8
L445.473 388.8
L449.893 388.8
L454.313 388.8
L458.733 388.8
L463.152 388.8
L467.572 388.8
L471.992 388.8
L476.412 388.8
L480.832 388.8
L485.251 388.8
L489.671 388.8
L494.091 388.8
L498.511 388.8
L502.931 388.8
L507.35 388.8
L511.77 388.8
L516.19 388.8" style="fill:none;stroke:#ff0000;stroke-linecap:square;"/>
   </g>
   <g id="line2d_11">
    <path clip-path="url(#p7ff5b81e1d)" d="
M74.2099 388.8
L78.6297 388.8
L83.0495 388.8
L87.4693 388.8
L91.8891 388.8
L96.3089 388.8
L100.729 388.8
L105.149 388.8
L109.568 388.8
L113.988 388.8
L118.408 388.8
L122.828 388.8
L127.248 388.8
L131.667 388.8
L136.087 388.8
L140.507 388.8
L144.927 388.8
L149.347 388.8
L153.766 388.8
L158.186 388.8
L162.606 388.8
L167.026 388.8
L171.446 388.8
L175.865 388.8
L180.285 388.8
L184.705 388.8
L189.125 388.8
L193.545 388.796
L197.964 388.775
L202.384 388.712
L206.804 388.391
L211.224 387.537
L215.644 385.094
L220.063 379.421
L224.483 367.73
L228.903 346.487
L233.323 313.676
L237.743 267.562
L242.162 215.858
L246.582 168.286
L251.002 135.199
L255.422 129.608
L259.842 153.686
L264.261 198.597
L268.681 251.028
L273.101 302.356
L277.521 340.191
L281.941 364.422
L286.36 378.163
L290.78 384.778
L295.2 387.383
L299.62 388.395
L304.04 388.698
L308.459 388.773
L312.879 388.8
L317.299 388.798
L321.719 388.8
L326.139 388.8
L330.558 388.8
L334.978 388.8
L339.398 388.8
L343.818 388.8
L348.238 388.8
L352.657 388.8
L357.077 388.8
L361.497 388.8
L365.917 388.8
L370.337 388.8
L374.756 388.8
L379.176 388.8
L383.596 388.8
L388.016 388.8
L392.436 388.8
L396.855 388.8
L401.275 388.8
L405.695 388.8
L410.115 388.8
L414.535 388.8
L418.954 388.8
L423.374 388.8
L427.794 388.8
L432.214 388.8
L436.634 388.8
L441.053 388.8
L445.473 388.8
L449.893 388.8
L454.313 388.8
L458.733 388.8
L463.152 388.8
L467.572 388.8
L471.992 388.8
L476.412 388.8
L480.832 388.8
L485.251 388.8
L489.671 388.8
L494.091 388.8
L498.511 388.8
L502.931 388.8
L507.35 388.8
L511.77 388.8
L516.19 388.8" style="fill:none;stroke:#00bfbf;stroke-linecap:square;"/>
   </g>
   <g id="line2d_12">
    <path clip-path="url(#p7ff5b81e1d)" d="
M74.2099 388.8
L78.6297 388.8
L83.0495 388.8
L87.4693 388.8
L91.8891 388.8
L96.3089 388.8
L100.729 388.8
L105.149 388.8
L109.568 388.8
L113.988 388.8
L118.408 388.8
L122.828 388.8
L127.248 388.8
L131.667 388.8
L136.087 388.8
L140.507 388.8
L144.927 388.8
L149.347 388.8
L153.766 388.8
L158.186 388.8
L162.606 388.8
L167.026 388.8
L171.446 388.8
L175.865 388.8
L180.285 388.8
L184.705 388.8
L189.125 388.8
L193.545 388.8
L197.964 388.794
L202.384 388.744
L206.804 388.641
L211.224 388.111
L215.644 386.788
L220.063 382.556
L224.483 373.498
L228.903 354.14
L233.323 321.865
L237.743 273.665
L242.162 213.539
L246.582 157.29
L251.002 118.848
L255.422 112.268
L259.842 140.78
L264.261 194.137
L268.681 255.723
L273.101 309.638
L277.521 347.316
L281.941 370.282
L286.36 381.512
L290.78 386.446
L295.2 388.07
L299.62 388.589
L304.04 388.769
L308.459 388.794
L312.879 388.796
L317.299 388.8
L321.719 388.8
L326.139 388.8
L330.558 388.8
L334.978 388.8
L339.398 388.8
L343.818 388.8
L348.238 388.8
L352.657 388.8
L357.077 388.8
L361.497 388.8
L365.917 388.8
L370.337 388.8
L374.756 388.8
L379.176 388.8
L383.596 388.8
L388.016 388.8
L392.436 388.8
L396.855 388.8
L401.275 388.8
L405.695 388.8
L410.115 388.8
L414.535 388.8
L418.954 388.8
L423.374 388.8
L427.794 388.8
L432.214 388.8
L436.634 388.8
L441.053 388.8
L445.473 388.8
L449.893 388.8
L454.313 388.8
L458.733 388.8
L463.152 388.8
L467.572 388.8
L471.992 388.8
L476.412 388.8
L480.832 388.8
L485.251 388.8
L489.671 388.8
L494.091 388.8
L498.511 388.8
L502.931 388.8
L507.35 388.8
L511.77 388.8
L516.19 388.8" style="fill:none;stroke:#bf00bf;stroke-linecap:square;"/>
   </g>
   <g id="line2d_13">
    <path clip-path="url(#p7ff5b81e1d)" d="
M74.2099 388.8
L78.6297 388.8
L83.0495 388.8
L87.4693 388.8
L91.8891 388.8
L96.3089 388.8
L100.729 388.8
L105.149 388.8
L109.568 388.8
L113.988 388.8
L118.408 388.8
L122.828 388.8
L127.248 388.8
L131.667 388.8
L136.087 388.8
L140.507 388.8
L144.927 388.8
L149.347 388.8
L153.766 388.8
L158.186 388.8
L162.606 388.8
L167.026 388.8
L171.446 388.8
L175.865 388.8
L180.285 388.8
L184.705 388.8
L189.125 388.8
L193.545 388.8
L197.964 388.8
L202.384 388.783
L206.804 388.723
L211.224 388.464
L215.644 387.592
L220.063 384.624
L224.483 377.276
L228.903 360.505
L233.323 329.328
L237.743 279.875
L242.162 214.723
L246.582 150.052
L251.002 103.897
L255.422 95.4278
L259.842 129.604
L264.261 190.335
L268.681 259.505
L273.101 316.481
L277.521 354.219
L281.941 374.648
L286.36 383.781
L290.78 387.396
L295.2 388.451
L299.62 388.725
L304.04 388.785
L308.459 388.8
L312.879 388.8
L317.299 388.8
L321.719 388.8
L326.139 388.8
L330.558 388.8
L334.978 388.8
L339.398 388.8
L343.818 388.8
L348.238 388.8
L352.657 388.8
L357.077 388.8
L361.497 388.8
L365.917 388.8
L370.337 388.8
L374.756 388.8
L379.176 388.8
L383.596 388.8
L388.016 388.8
L392.436 388.8
L396.855 388.8
L401.275 388.8
L405.695 388.8
L410.115 388.8
L414.535 388.8
L418.954 388.8
L423.374 388.8
L427.794 388.8
L432.214 388.8
L436.634 388.8
L441.053 388.8
L445.473 388.8
L449.893 388.8
L454.313 388.8
L458.733 388.8
L463.152 388.8
L467.572 388.8
L471.992 388.8
L476.412 388.8
L480.832 388.8
L485.251 388.8
L489.671 388.8
L494.091 388.8
L498.511 388.8
L502.931 388.8
L507.35 388.8
L511.77 388.8
L516.19 388.8" style="fill:none;stroke:#bfbf00;stroke-linecap:square;"/>
   </g>
   <g id="line2d_14">
    <path clip-path="url(#p7ff5b81e1d)" d="
M74.2099 388.8
L78.6297 388.8
L83.0495 388.8
L87.4693 388.8
L91.8891 388.8
L96.3089 388.8
L100.729 388.8
L105.149 388.8
L109.568 388.8
L113.988 388.8
L118.408 388.8
L122.828 388.8
L127.248 388.8
L131.667 388.8
L136.087 388.8
L140.507 388.8
L144.927 388.8
L149.347 388.8
L153.766 388.8
L158.186 388.8
L162.606 388.8
L167.026 388.8
L171.446 388.8
L175.865 388.8
L180.285 388.8
L184.705 388.8
L189.125 388.8
L193.545 388.8
L197.964 388.8
L202.384 388.79
L206.804 388.779
L211.224 388.616
L215.644 388.103
L220.063 386.135
L224.483 380.527
L228.903 366.113
L233.323 336.95
L237.743 286.293
L242.162 216.127
L246.582 141.565
L251.002 89.2147
L255.422 79.5898
L259.842 119.555
L264.261 190.226
L268.681 264.081
L273.101 322.543
L277.521 360.123
L281.941 378.28
L286.36 385.436
L290.78 387.969
L295.2 388.616
L299.62 388.777
L304.04 388.792
L308.459 388.8
L312.879 388.8
L317.299 388.8
L321.719 388.8
L326.139 388.8
L330.558 388.8
L334.978 388.8
L339.398 388.8
L343.818 388.8
L348.238 388.8
L352.657 388.8
L357.077 388.8
L361.497 388.8
L365.917 388.8
L370.337 388.8
L374.756 388.8
L379.176 388.8
L383.596 388.8
L388.016 388.8
L392.436 388.8
L396.855 388.8
L401.275 388.8
L405.695 388.8
L410.115 388.8
L414.535 388.8
L418.954 388.8
L423.374 388.8
L427.794 388.8
L432.214 388.8
L436.634 388.8
L441.053 388.8
L445.473 388.8
L449.893 388.8
L454.313 388.8
L458.733 388.8
L463.152 388.8
L467.572 388.8
L471.992 388.8
L476.412 388.8
L480.832 388.8
L485.251 388.8
L489.671 388.8
L494.091 388.8
L498.511 388.8
L502.931 388.8
L507.35 388.8
L511.77 388.8
L516.19 388.8" style="fill:none;stroke:#000000;stroke-linecap:square;"/>
   </g>
   <g id="matplotlib.axis_1">
    <g id="xtick_1">
     <g id="line2d_15">
      <defs>
       <path d="
M0 0
L0 -4" id="mc7db9fdffb" style="stroke:#000000;stroke-width:0.5;"/>
      </defs>
      <g>
       <use style="stroke:#000000;stroke-width:0.5;" x="72.0" xlink:href="#mc7db9fdffb" y="388.8"/>
      </g>
     </g>
     <g id="line2d_16">
      <defs>
       <path d="
M0 0
L0 4" id="m5a7d422ac3" style="stroke:#000000;stroke-width:0.5;"/>
      </defs>
      <g>
       <use style="stroke:#000000;stroke-width:0.5;" x="72.0" xlink:href="#m5a7d422ac3" y="43.2"/>
      </g>
     </g>
     <g id="text_1">
      <!-- 0.0 -->
      <defs>
       <path d="
M31.7812 66.4062
Q24.1719 66.4062 20.3281 58.9062
Q16.5 51.4219 16.5 36.375
Q16.5 21.3906 20.3281 13.8906
Q24.1719 6.39062 31.7812 6.39062
Q39.4531 6.39062 43.2812 13.8906
Q47.125 21.3906 47.125 36.375
Q47.125 51.4219 43.2812 58.9062
Q39.4531 66.4062 31.7812 66.4062
M31.7812 74.2188
Q44.0469 74.2188 50.5156 64.5156
Q56.9844 54.8281 56.9844 36.375
Q56.9844 17.9688 50.5156 8.26562
Q44.0469 -1.42188 31.7812 -1.42188
Q19.5312 -1.42188 13.0625 8.26562
Q6.59375 17.9688 6.59375 36.375
Q6.59375 54.8281 13.0625 64.5156
Q19.5312 74.2188 31.7812 74.2188" id="BitstreamVeraSans-Roman-30"/>
       <path d="
M10.6875 12.4062
L21 12.4062
L21 0
L10.6875 0
z
" id="BitstreamVeraSans-Roman-2e"/>
      </defs>
      <g transform="translate(63.2521875 401.918125)scale(0.12 -0.12)">
       <use xlink:href="#BitstreamVeraSans-Roman-30"/>
       <use x="63.623046875" xlink:href="#BitstreamVeraSans-Roman-2e"/>
       <use x="95.41015625" xlink:href="#BitstreamVeraSans-Roman-30"/>
      </g>
     </g>
    </g>
    <g id="xtick_2">
     <g id="line2d_17">
      <g>
       <use style="stroke:#000000;stroke-width:0.5;" x="161.28" xlink:href="#mc7db9fdffb" y="388.8"/>
      </g>
     </g>
     <g id="line2d_18">
      <g>
       <use style="stroke:#000000;stroke-width:0.5;" x="161.28" xlink:href="#m5a7d422ac3" y="43.2"/>
      </g>
     </g>
     <g id="text_2">
      <!-- 0.2 -->
      <defs>
       <path d="
M19.1875 8.29688
L53.6094 8.29688
L53.6094 0
L7.32812 0
L7.32812 8.29688
Q12.9375 14.1094 22.625 23.8906
Q32.3281 33.6875 34.8125 36.5312
Q39.5469 41.8438 41.4219 45.5312
Q43.3125 49.2188 43.3125 52.7812
Q43.3125 58.5938 39.2344 62.25
Q35.1562 65.9219 28.6094 65.9219
Q23.9688 65.9219 18.8125 64.3125
Q13.6719 62.7031 7.8125 59.4219
L7.8125 69.3906
Q13.7656 71.7812 18.9375 73
Q24.125 74.2188 28.4219 74.2188
Q39.75 74.2188 46.4844 68.5469
Q53.2188 62.8906 53.2188 53.4219
Q53.2188 48.9219 51.5312 44.8906
Q49.8594 40.875 45.4062 35.4062
Q44.1875 33.9844 37.6406 27.2188
Q31.1094 20.4531 19.1875 8.29688" id="BitstreamVeraSans-Roman-32"/>
      </defs>
      <g transform="translate(152.7346875 401.918125)scale(0.12 -0.12)">
       <use xlink:href="#BitstreamVeraSans-Roman-30"/>
       <use x="63.623046875" xlink:href="#BitstreamVeraSans-Roman-2e"/>
       <use x="95.41015625" xlink:href="#BitstreamVeraSans-Roman-32"/>
      </g>
     </g>
    </g>
    <g id="xtick_3">
     <g id="line2d_19">
      <g>
       <use style="stroke:#000000;stroke-width:0.5;" x="250.56" xlink:href="#mc7db9fdffb" y="388.8"/>
      </g>
     </g>
     <g id="line2d_20">
      <g>
       <use style="stroke:#000000;stroke-width:0.5;" x="250.56" xlink:href="#m5a7d422ac3" y="43.2"/>
      </g>
     </g>
     <g id="text_3">
      <!-- 0.4 -->
      <defs>
       <path d="
M37.7969 64.3125
L12.8906 25.3906
L37.7969 25.3906
z

M35.2031 72.9062
L47.6094 72.9062
L47.6094 25.3906
L58.0156 25.3906
L58.0156 17.1875
L47.6094 17.1875
L47.6094 0
L37.7969 0
L37.7969 17.1875
L4.89062 17.1875
L4.89062 26.7031
z
" id="BitstreamVeraSans-Roman-34"/>
      </defs>
      <g transform="translate(241.7503125 401.918125)scale(0.12 -0.12)">
       <use xlink:href="#BitstreamVeraSans-Roman-30"/>
       <use x="63.623046875" xlink:href="#BitstreamVeraSans-Roman-2e"/>
       <use x="95.41015625" xlink:href="#BitstreamVeraSans-Roman-34"/>
      </g>
     </g>
    </g>
    <g id="xtick_4">
     <g id="line2d_21">
      <g>
       <use style="stroke:#000000;stroke-width:0.5;" x="339.84" xlink:href="#mc7db9fdffb" y="388.8"/>
      </g>
     </g>
     <g id="line2d_22">
      <g>
       <use style="stroke:#000000;stroke-width:0.5;" x="339.84" xlink:href="#m5a7d422ac3" y="43.2"/>
      </g>
     </g>
     <g id="text_4">
      <!-- 0.6 -->
      <defs>
       <path d="
M33.0156 40.375
Q26.375 40.375 22.4844 35.8281
Q18.6094 31.2969 18.6094 23.3906
Q18.6094 15.5312 22.4844 10.9531
Q26.375 6.39062 33.0156 6.39062
Q39.6562 6.39062 43.5312 10.9531
Q47.4062 15.5312 47.4062 23.3906
Q47.4062 31.2969 43.5312 35.8281
Q39.6562 40.375 33.0156 40.375
M52.5938 71.2969
L52.5938 62.3125
Q48.875 64.0625 45.0938 64.9844
Q41.3125 65.9219 37.5938 65.9219
Q27.8281 65.9219 22.6719 59.3281
Q17.5312 52.7344 16.7969 39.4062
Q19.6719 43.6562 24.0156 45.9219
Q28.375 48.1875 33.5938 48.1875
Q44.5781 48.1875 50.9531 41.5156
Q57.3281 34.8594 57.3281 23.3906
Q57.3281 12.1562 50.6875 5.35938
Q44.0469 -1.42188 33.0156 -1.42188
Q20.3594 -1.42188 13.6719 8.26562
Q6.98438 17.9688 6.98438 36.375
Q6.98438 53.6562 15.1875 63.9375
Q23.3906 74.2188 37.2031 74.2188
Q40.9219 74.2188 44.7031 73.4844
Q48.4844 72.75 52.5938 71.2969" id="BitstreamVeraSans-Roman-36"/>
      </defs>
      <g transform="translate(331.0715625 401.918125)scale(0.12 -0.12)">
       <use xlink:href="#BitstreamVeraSans-Roman-30"/>
       <use x="63.623046875" xlink:href="#BitstreamVeraSans-Roman-2e"/>
       <use x="95.41015625" xlink:href="#BitstreamVeraSans-Roman-36"/>
      </g>
     </g>
    </g>
    <g id="xtick_5">
     <g id="line2d_23">
      <g>
       <use style="stroke:#000000;stroke-width:0.5;" x="429.12" xlink:href="#mc7db9fdffb" y="388.8"/>
      </g>
     </g>
     <g id="line2d_24">
      <g>
       <use style="stroke:#000000;stroke-width:0.5;" x="429.12" xlink:href="#m5a7d422ac3" y="43.2"/>
      </g>
     </g>
     <g id="text_5">
      <!-- 0.8 -->
      <defs>
       <path d="
M31.7812 34.625
Q24.75 34.625 20.7188 30.8594
Q16.7031 27.0938 16.7031 20.5156
Q16.7031 13.9219 20.7188 10.1562
Q24.75 6.39062 31.7812 6.39062
Q38.8125 6.39062 42.8594 10.1719
Q46.9219 13.9688 46.9219 20.5156
Q46.9219 27.0938 42.8906 30.8594
Q38.875 34.625 31.7812 34.625
M21.9219 38.8125
Q15.5781 40.375 12.0312 44.7188
Q8.5 49.0781 8.5 55.3281
Q8.5 64.0625 14.7188 69.1406
Q20.9531 74.2188 31.7812 74.2188
Q42.6719 74.2188 48.875 69.1406
Q55.0781 64.0625 55.0781 55.3281
Q55.0781 49.0781 51.5312 44.7188
Q48 40.375 41.7031 38.8125
Q48.8281 37.1562 52.7969 32.3125
Q56.7812 27.4844 56.7812 20.5156
Q56.7812 9.90625 50.3125 4.23438
Q43.8438 -1.42188 31.7812 -1.42188
Q19.7344 -1.42188 13.25 4.23438
Q6.78125 9.90625 6.78125 20.5156
Q6.78125 27.4844 10.7812 32.3125
Q14.7969 37.1562 21.9219 38.8125
M18.3125 54.3906
Q18.3125 48.7344 21.8438 45.5625
Q25.3906 42.3906 31.7812 42.3906
Q38.1406 42.3906 41.7188 45.5625
Q45.3125 48.7344 45.3125 54.3906
Q45.3125 60.0625 41.7188 63.2344
Q38.1406 66.4062 31.7812 66.4062
Q25.3906 66.4062 21.8438 63.2344
Q18.3125 60.0625 18.3125 54.3906" id="BitstreamVeraSans-Roman-38"/>
      </defs>
      <g transform="translate(420.384375 401.918125)scale(0.12 -0.12)">
       <use xlink:href="#BitstreamVeraSans-Roman-30"/>
       <use x="63.623046875" xlink:href="#BitstreamVeraSans-Roman-2e"/>
       <use x="95.41015625" xlink:href="#BitstreamVeraSans-Roman-38"/>
      </g>
     </g>
    </g>
    <g id="xtick_6">
     <g id="line2d_25">
      <g>
       <use style="stroke:#000000;stroke-width:0.5;" x="518.4" xlink:href="#mc7db9fdffb" y="388.8"/>
      </g>
     </g>
     <g id="line2d_26">
      <g>
       <use style="stroke:#000000;stroke-width:0.5;" x="518.4" xlink:href="#m5a7d422ac3" y="43.2"/>
      </g>
     </g>
     <g id="text_6">
      <!-- 1.0 -->
      <defs>
       <path d="
M12.4062 8.29688
L28.5156 8.29688
L28.5156 63.9219
L10.9844 60.4062
L10.9844 69.3906
L28.4219 72.9062
L38.2812 72.9062
L38.2812 8.29688
L54.3906 8.29688
L54.3906 0
L12.4062 0
z
" id="BitstreamVeraSans-Roman-31"/>
      </defs>
      <g transform="translate(509.915625 401.918125)scale(0.12 -0.12)">
       <use xlink:href="#BitstreamVeraSans-Roman-31"/>
       <use x="63.623046875" xlink:href="#BitstreamVeraSans-Roman-2e"/>
       <use x="95.41015625" xlink:href="#BitstreamVeraSans-Roman-30"/>
      </g>
     </g>
    </g>
   </g>
   <g id="matplotlib.axis_2">
    <g id="ytick_1">
     <g id="line2d_27">
      <defs>
       <path d="
M0 0
L4 0" id="md7965d1ba0" style="stroke:#000000;stroke-width:0.5;"/>
      </defs>
      <g>
       <use style="stroke:#000000;stroke-width:0.5;" x="72.0" xlink:href="#md7965d1ba0" y="388.8"/>
      </g>
     </g>
     <g id="line2d_28">
      <defs>
       <path d="
M0 0
L-4 0" id="md9a1c1a7cd" style="stroke:#000000;stroke-width:0.5;"/>
      </defs>
      <g>
       <use style="stroke:#000000;stroke-width:0.5;" x="518.4" xlink:href="#md9a1c1a7cd" y="388.8"/>
      </g>
     </g>
     <g id="text_7">
      <!-- 0 -->
      <g transform="translate(61.953125 392.11125)scale(0.12 -0.12)">
       <use xlink:href="#BitstreamVeraSans-Roman-30"/>
      </g>
     </g>
    </g>
    <g id="ytick_2">
     <g id="line2d_29">
      <g>
       <use style="stroke:#000000;stroke-width:0.5;" x="72.0" xlink:href="#md7965d1ba0" y="350.4"/>
      </g>
     </g>
     <g id="line2d_30">
      <g>
       <use style="stroke:#000000;stroke-width:0.5;" x="518.4" xlink:href="#md9a1c1a7cd" y="350.4"/>
      </g>
     </g>
     <g id="text_8">
      <!-- 20000 -->
      <g transform="translate(31.50125 353.71125)scale(0.12 -0.12)">
       <use xlink:href="#BitstreamVeraSans-Roman-32"/>
       <use x="63.623046875" xlink:href="#BitstreamVeraSans-Roman-30"/>
       <use x="127.24609375" xlink:href="#BitstreamVeraSans-Roman-30"/>
       <use x="190.869140625" xlink:href="#BitstreamVeraSans-Roman-30"/>
       <use x="254.4921875" xlink:href="#BitstreamVeraSans-Roman-30"/>
      </g>
     </g>
    </g>
    <g id="ytick_3">
     <g id="line2d_31">
      <g>
       <use style="stroke:#000000;stroke-width:0.5;" x="72.0" xlink:href="#md7965d1ba0" y="312.0"/>
      </g>
     </g>
     <g id="line2d_32">
      <g>
       <use style="stroke:#000000;stroke-width:0.5;" x="518.4" xlink:href="#md9a1c1a7cd" y="312.0"/>
      </g>
     </g>
     <g id="text_9">
      <!-- 40000 -->
      <g transform="translate(31.20875 315.31125)scale(0.12 -0.12)">
       <use xlink:href="#BitstreamVeraSans-Roman-34"/>
       <use x="63.623046875" xlink:href="#BitstreamVeraSans-Roman-30"/>
       <use x="127.24609375" xlink:href="#BitstreamVeraSans-Roman-30"/>
       <use x="190.869140625" xlink:href="#BitstreamVeraSans-Roman-30"/>
       <use x="254.4921875" xlink:href="#BitstreamVeraSans-Roman-30"/>
      </g>
     </g>
    </g>
    <g id="ytick_4">
     <g id="line2d_33">
      <g>
       <use style="stroke:#000000;stroke-width:0.5;" x="72.0" xlink:href="#md7965d1ba0" y="273.6"/>
      </g>
     </g>
     <g id="line2d_34">
      <g>
       <use style="stroke:#000000;stroke-width:0.5;" x="518.4" xlink:href="#md9a1c1a7cd" y="273.6"/>
      </g>
     </g>
     <g id="text_10">
      <!-- 60000 -->
      <g transform="translate(31.46 276.91125)scale(0.12 -0.12)">
       <use xlink:href="#BitstreamVeraSans-Roman-36"/>
       <use x="63.623046875" xlink:href="#BitstreamVeraSans-Roman-30"/>
       <use x="127.24609375" xlink:href="#BitstreamVeraSans-Roman-30"/>
       <use x="190.869140625" xlink:href="#BitstreamVeraSans-Roman-30"/>
       <use x="254.4921875" xlink:href="#BitstreamVeraSans-Roman-30"/>
      </g>
     </g>
    </g>
    <g id="ytick_5">
     <g id="line2d_35">
      <g>
       <use style="stroke:#000000;stroke-width:0.5;" x="72.0" xlink:href="#md7965d1ba0" y="235.2"/>
      </g>
     </g>
     <g id="line2d_36">
      <g>
       <use style="stroke:#000000;stroke-width:0.5;" x="518.4" xlink:href="#md9a1c1a7cd" y="235.2"/>
      </g>
     </g>
     <g id="text_11">
      <!-- 80000 -->
      <g transform="translate(31.435625 238.51125)scale(0.12 -0.12)">
       <use xlink:href="#BitstreamVeraSans-Roman-38"/>
       <use x="63.623046875" xlink:href="#BitstreamVeraSans-Roman-30"/>
       <use x="127.24609375" xlink:href="#BitstreamVeraSans-Roman-30"/>
       <use x="190.869140625" xlink:href="#BitstreamVeraSans-Roman-30"/>
       <use x="254.4921875" xlink:href="#BitstreamVeraSans-Roman-30"/>
      </g>
     </g>
    </g>
    <g id="ytick_6">
     <g id="line2d_37">
      <g>
       <use style="stroke:#000000;stroke-width:0.5;" x="72.0" xlink:href="#md7965d1ba0" y="196.8"/>
      </g>
     </g>
     <g id="line2d_38">
      <g>
       <use style="stroke:#000000;stroke-width:0.5;" x="518.4" xlink:href="#md9a1c1a7cd" y="196.8"/>
      </g>
     </g>
     <g id="text_12">
      <!-- 100000 -->
      <g transform="translate(24.305 200.11125)scale(0.12 -0.12)">
       <use xlink:href="#BitstreamVeraSans-Roman-31"/>
       <use x="63.623046875" xlink:href="#BitstreamVeraSans-Roman-30"/>
       <use x="127.24609375" xlink:href="#BitstreamVeraSans-Roman-30"/>
       <use x="190.869140625" xlink:href="#BitstreamVeraSans-Roman-30"/>
       <use x="254.4921875" xlink:href="#BitstreamVeraSans-Roman-30"/>
       <use x="318.115234375" xlink:href="#BitstreamVeraSans-Roman-30"/>
      </g>
     </g>
    </g>
    <g id="ytick_7">
     <g id="line2d_39">
      <g>
       <use style="stroke:#000000;stroke-width:0.5;" x="72.0" xlink:href="#md7965d1ba0" y="158.4"/>
      </g>
     </g>
     <g id="line2d_40">
      <g>
       <use style="stroke:#000000;stroke-width:0.5;" x="518.4" xlink:href="#md9a1c1a7cd" y="158.4"/>
      </g>
     </g>
     <g id="text_13">
      <!-- 120000 -->
      <g transform="translate(24.305 161.71125)scale(0.12 -0.12)">
       <use xlink:href="#BitstreamVeraSans-Roman-31"/>
       <use x="63.623046875" xlink:href="#BitstreamVeraSans-Roman-32"/>
       <use x="127.24609375" xlink:href="#BitstreamVeraSans-Roman-30"/>
       <use x="190.869140625" xlink:href="#BitstreamVeraSans-Roman-30"/>
       <use x="254.4921875" xlink:href="#BitstreamVeraSans-Roman-30"/>
       <use x="318.115234375" xlink:href="#BitstreamVeraSans-Roman-30"/>
      </g>
     </g>
    </g>
    <g id="ytick_8">
     <g id="line2d_41">
      <g>
       <use style="stroke:#000000;stroke-width:0.5;" x="72.0" xlink:href="#md7965d1ba0" y="120.0"/>
      </g>
     </g>
     <g id="line2d_42">
      <g>
       <use style="stroke:#000000;stroke-width:0.5;" x="518.4" xlink:href="#md9a1c1a7cd" y="120.0"/>
      </g>
     </g>
     <g id="text_14">
      <!-- 140000 -->
      <g transform="translate(24.305 123.31125)scale(0.12 -0.12)">
       <use xlink:href="#BitstreamVeraSans-Roman-31"/>
       <use x="63.623046875" xlink:href="#BitstreamVeraSans-Roman-34"/>
       <use x="127.24609375" xlink:href="#BitstreamVeraSans-Roman-30"/>
       <use x="190.869140625" xlink:href="#BitstreamVeraSans-Roman-30"/>
       <use x="254.4921875" xlink:href="#BitstreamVeraSans-Roman-30"/>
       <use x="318.115234375" xlink:href="#BitstreamVeraSans-Roman-30"/>
      </g>
     </g>
    </g>
    <g id="ytick_9">
     <g id="line2d_43">
      <g>
       <use style="stroke:#000000;stroke-width:0.5;" x="72.0" xlink:href="#md7965d1ba0" y="81.6"/>
      </g>
     </g>
     <g id="line2d_44">
      <g>
       <use style="stroke:#000000;stroke-width:0.5;" x="518.4" xlink:href="#md9a1c1a7cd" y="81.6"/>
      </g>
     </g>
     <g id="text_15">
      <!-- 160000 -->
      <g transform="translate(24.305 84.91125)scale(0.12 -0.12)">
       <use xlink:href="#BitstreamVeraSans-Roman-31"/>
       <use x="63.623046875" xlink:href="#BitstreamVeraSans-Roman-36"/>
       <use x="127.24609375" xlink:href="#BitstreamVeraSans-Roman-30"/>
       <use x="190.869140625" xlink:href="#BitstreamVeraSans-Roman-30"/>
       <use x="254.4921875" xlink:href="#BitstreamVeraSans-Roman-30"/>
       <use x="318.115234375" xlink:href="#BitstreamVeraSans-Roman-30"/>
      </g>
     </g>
    </g>
    <g id="ytick_10">
     <g id="line2d_45">
      <g>
       <use style="stroke:#000000;stroke-width:0.5;" x="72.0" xlink:href="#md7965d1ba0" y="43.2"/>
      </g>
     </g>
     <g id="line2d_46">
      <g>
       <use style="stroke:#000000;stroke-width:0.5;" x="518.4" xlink:href="#md9a1c1a7cd" y="43.2"/>
      </g>
     </g>
     <g id="text_16">
      <!-- 180000 -->
      <g transform="translate(24.305 46.51125)scale(0.12 -0.12)">
       <use xlink:href="#BitstreamVeraSans-Roman-31"/>
       <use x="63.623046875" xlink:href="#BitstreamVeraSans-Roman-38"/>
       <use x="127.24609375" xlink:href="#BitstreamVeraSans-Roman-30"/>
       <use x="190.869140625" xlink:href="#BitstreamVeraSans-Roman-30"/>
       <use x="254.4921875" xlink:href="#BitstreamVeraSans-Roman-30"/>
       <use x="318.115234375" xlink:href="#BitstreamVeraSans-Roman-30"/>
      </g>
     </g>
    </g>
   </g>
   <g id="patch_3">
    <path d="
M72 388.8
L518.4 388.8" style="fill:none;stroke:#000000;"/>
   </g>
   <g id="patch_4">
    <path d="
M72 43.2
L518.4 43.2" style="fill:none;stroke:#000000;"/>
   </g>
   <g id="patch_5">
    <path d="
M72 388.8
L72 43.2" style="fill:none;stroke:#000000;"/>
   </g>
   <g id="patch_6">
    <path d="
M518.4 388.8
L518.4 43.2" style="fill:none;stroke:#000000;"/>
   </g>
   <g id="legend_1">
    <g id="patch_7">
     <path d="
M412.416 350.631
L511.2 350.631
L511.2 50.4
L412.416 50.4
L412.416 350.631
z
" style="fill:#ffffff;stroke:#000000;"/>
    </g>
    <g id="line2d_47">
     <path d="
M422.496 62.0617
L442.656 62.0617" style="fill:none;stroke:#0000ff;stroke-linecap:square;"/>
    </g>
    <g id="line2d_48"/>
    <g id="text_17">
     <!-- d=1 -->
     <defs>
      <path d="
M45.4062 46.3906
L45.4062 75.9844
L54.3906 75.9844
L54.3906 0
L45.4062 0
L45.4062 8.20312
Q42.5781 3.32812 38.25 0.953125
Q33.9375 -1.42188 27.875 -1.42188
Q17.9688 -1.42188 11.7344 6.48438
Q5.51562 14.4062 5.51562 27.2969
Q5.51562 40.1875 11.7344 48.0938
Q17.9688 56 27.875 56
Q33.9375 56 38.25 53.625
Q42.5781 51.2656 45.4062 46.3906
M14.7969 27.2969
Q14.7969 17.3906 18.875 11.75
Q22.9531 6.10938 30.0781 6.10938
Q37.2031 6.10938 41.2969 11.75
Q45.4062 17.3906 45.4062 27.2969
Q45.4062 37.2031 41.2969 42.8438
Q37.2031 48.4844 30.0781 48.4844
Q22.9531 48.4844 18.875 42.8438
Q14.7969 37.2031 14.7969 27.2969" id="BitstreamVeraSans-Roman-64"/>
      <path d="
M10.5938 45.4062
L73.1875 45.4062
L73.1875 37.2031
L10.5938 37.2031
z

M10.5938 25.4844
L73.1875 25.4844
L73.1875 17.1875
L10.5938 17.1875
z
" id="BitstreamVeraSans-Roman-3d"/>
     </defs>
     <g transform="translate(458.496 67.10175)scale(0.144 -0.144)">
      <use xlink:href="#BitstreamVeraSans-Roman-64"/>
      <use x="63.4765625" xlink:href="#BitstreamVeraSans-Roman-3d"/>
      <use x="147.265625" xlink:href="#BitstreamVeraSans-Roman-31"/>
     </g>
    </g>
    <g id="line2d_49">
     <path d="
M422.496 83.1982
L442.656 83.1982" style="fill:none;stroke:#008000;stroke-linecap:square;"/>
    </g>
    <g id="line2d_50"/>
    <g id="text_18">
     <!-- d=2 -->
     <g transform="translate(458.496 88.23825)scale(0.144 -0.144)">
      <use xlink:href="#BitstreamVeraSans-Roman-64"/>
      <use x="63.4765625" xlink:href="#BitstreamVeraSans-Roman-3d"/>
      <use x="147.265625" xlink:href="#BitstreamVeraSans-Roman-32"/>
     </g>
    </g>
    <g id="line2d_51">
     <path d="
M422.496 104.335
L442.656 104.335" style="fill:none;stroke:#ff0000;stroke-linecap:square;"/>
    </g>
    <g id="line2d_52"/>
    <g id="text_19">
     <!-- d=3 -->
     <defs>
      <path d="
M40.5781 39.3125
Q47.6562 37.7969 51.625 33
Q55.6094 28.2188 55.6094 21.1875
Q55.6094 10.4062 48.1875 4.48438
Q40.7656 -1.42188 27.0938 -1.42188
Q22.5156 -1.42188 17.6562 -0.515625
Q12.7969 0.390625 7.625 2.20312
L7.625 11.7188
Q11.7188 9.32812 16.5938 8.10938
Q21.4844 6.89062 26.8125 6.89062
Q36.0781 6.89062 40.9375 10.5469
Q45.7969 14.2031 45.7969 21.1875
Q45.7969 27.6406 41.2812 31.2656
Q36.7656 34.9062 28.7188 34.9062
L20.2188 34.9062
L20.2188 43.0156
L29.1094 43.0156
Q36.375 43.0156 40.2344 45.9219
Q44.0938 48.8281 44.0938 54.2969
Q44.0938 59.9062 40.1094 62.9062
Q36.1406 65.9219 28.7188 65.9219
Q24.6562 65.9219 20.0156 65.0312
Q15.375 64.1562 9.8125 62.3125
L9.8125 71.0938
Q15.4375 72.6562 20.3438 73.4375
Q25.25 74.2188 29.5938 74.2188
Q40.8281 74.2188 47.3594 69.1094
Q53.9062 64.0156 53.9062 55.3281
Q53.9062 49.2656 50.4375 45.0938
Q46.9688 40.9219 40.5781 39.3125" id="BitstreamVeraSans-Roman-33"/>
     </defs>
     <g transform="translate(458.496 109.37475)scale(0.144 -0.144)">
      <use xlink:href="#BitstreamVeraSans-Roman-64"/>
      <use x="63.4765625" xlink:href="#BitstreamVeraSans-Roman-3d"/>
      <use x="147.265625" xlink:href="#BitstreamVeraSans-Roman-33"/>
     </g>
    </g>
    <g id="line2d_53">
     <path d="
M422.496 125.471
L442.656 125.471" style="fill:none;stroke:#00bfbf;stroke-linecap:square;"/>
    </g>
    <g id="line2d_54"/>
    <g id="text_20">
     <!-- d=4 -->
     <g transform="translate(458.496 130.51125)scale(0.144 -0.144)">
      <use xlink:href="#BitstreamVeraSans-Roman-64"/>
      <use x="63.4765625" xlink:href="#BitstreamVeraSans-Roman-3d"/>
      <use x="147.265625" xlink:href="#BitstreamVeraSans-Roman-34"/>
     </g>
    </g>
    <g id="line2d_55">
     <path d="
M422.496 146.608
L442.656 146.608" style="fill:none;stroke:#bf00bf;stroke-linecap:square;"/>
    </g>
    <g id="line2d_56"/>
    <g id="text_21">
     <!-- d=10 -->
     <g transform="translate(458.496 151.64775)scale(0.144 -0.144)">
      <use xlink:href="#BitstreamVeraSans-Roman-64"/>
      <use x="63.4765625" xlink:href="#BitstreamVeraSans-Roman-3d"/>
      <use x="147.265625" xlink:href="#BitstreamVeraSans-Roman-31"/>
      <use x="210.888671875" xlink:href="#BitstreamVeraSans-Roman-30"/>
     </g>
    </g>
    <g id="line2d_57">
     <path d="
M422.496 167.744
L442.656 167.744" style="fill:none;stroke:#bfbf00;stroke-linecap:square;"/>
    </g>
    <g id="line2d_58"/>
    <g id="text_22">
     <!-- d=20 -->
     <g transform="translate(458.496 172.78425)scale(0.144 -0.144)">
      <use xlink:href="#BitstreamVeraSans-Roman-64"/>
      <use x="63.4765625" xlink:href="#BitstreamVeraSans-Roman-3d"/>
      <use x="147.265625" xlink:href="#BitstreamVeraSans-Roman-32"/>
      <use x="210.888671875" xlink:href="#BitstreamVeraSans-Roman-30"/>
     </g>
    </g>
    <g id="line2d_59">
     <path d="
M422.496 188.881
L442.656 188.881" style="fill:none;stroke:#000000;stroke-linecap:square;"/>
    </g>
    <g id="line2d_60"/>
    <g id="text_23">
     <!-- d=30 -->
     <g transform="translate(458.496 193.92075)scale(0.144 -0.144)">
      <use xlink:href="#BitstreamVeraSans-Roman-64"/>
      <use x="63.4765625" xlink:href="#BitstreamVeraSans-Roman-3d"/>
      <use x="147.265625" xlink:href="#BitstreamVeraSans-Roman-33"/>
      <use x="210.888671875" xlink:href="#BitstreamVeraSans-Roman-30"/>
     </g>
    </g>
    <g id="line2d_61">
     <path d="
M422.496 210.017
L442.656 210.017" style="fill:none;stroke:#0000ff;stroke-linecap:square;"/>
    </g>
    <g id="line2d_62"/>
    <g id="text_24">
     <!-- d=40 -->
     <g transform="translate(458.496 215.05725)scale(0.144 -0.144)">
      <use xlink:href="#BitstreamVeraSans-Roman-64"/>
      <use x="63.4765625" xlink:href="#BitstreamVeraSans-Roman-3d"/>
      <use x="147.265625" xlink:href="#BitstreamVeraSans-Roman-34"/>
      <use x="210.888671875" xlink:href="#BitstreamVeraSans-Roman-30"/>
     </g>
    </g>
    <g id="line2d_63">
     <path d="
M422.496 231.154
L442.656 231.154" style="fill:none;stroke:#008000;stroke-linecap:square;"/>
    </g>
    <g id="line2d_64"/>
    <g id="text_25">
     <!-- d=50 -->
     <defs>
      <path d="
M10.7969 72.9062
L49.5156 72.9062
L49.5156 64.5938
L19.8281 64.5938
L19.8281 46.7344
Q21.9688 47.4688 24.1094 47.8281
Q26.2656 48.1875 28.4219 48.1875
Q40.625 48.1875 47.75 41.5
Q54.8906 34.8125 54.8906 23.3906
Q54.8906 11.625 47.5625 5.09375
Q40.2344 -1.42188 26.9062 -1.42188
Q22.3125 -1.42188 17.5469 -0.640625
Q12.7969 0.140625 7.71875 1.70312
L7.71875 11.625
Q12.1094 9.23438 16.7969 8.0625
Q21.4844 6.89062 26.7031 6.89062
Q35.1562 6.89062 40.0781 11.3281
Q45.0156 15.7656 45.0156 23.3906
Q45.0156 31 40.0781 35.4375
Q35.1562 39.8906 26.7031 39.8906
Q22.75 39.8906 18.8125 39.0156
Q14.8906 38.1406 10.7969 36.2812
z
" id="BitstreamVeraSans-Roman-35"/>
     </defs>
     <g transform="translate(458.496 236.19375)scale(0.144 -0.144)">
      <use xlink:href="#BitstreamVeraSans-Roman-64"/>
      <use x="63.4765625" xlink:href="#BitstreamVeraSans-Roman-3d"/>
      <use x="147.265625" xlink:href="#BitstreamVeraSans-Roman-35"/>
      <use x="210.888671875" xlink:href="#BitstreamVeraSans-Roman-30"/>
     </g>
    </g>
    <g id="line2d_65">
     <path d="
M422.496 252.29
L442.656 252.29" style="fill:none;stroke:#ff0000;stroke-linecap:square;"/>
    </g>
    <g id="line2d_66"/>
    <g id="text_26">
     <!-- d=60 -->
     <g transform="translate(458.496 257.33025)scale(0.144 -0.144)">
      <use xlink:href="#BitstreamVeraSans-Roman-64"/>
      <use x="63.4765625" xlink:href="#BitstreamVeraSans-Roman-3d"/>
      <use x="147.265625" xlink:href="#BitstreamVeraSans-Roman-36"/>
      <use x="210.888671875" xlink:href="#BitstreamVeraSans-Roman-30"/>
     </g>
    </g>
    <g id="line2d_67">
     <path d="
M422.496 273.427
L442.656 273.427" style="fill:none;stroke:#00bfbf;stroke-linecap:square;"/>
    </g>
    <g id="line2d_68"/>
    <g id="text_27">
     <!-- d=70 -->
     <defs>
      <path d="
M8.20312 72.9062
L55.0781 72.9062
L55.0781 68.7031
L28.6094 0
L18.3125 0
L43.2188 64.5938
L8.20312 64.5938
z
" id="BitstreamVeraSans-Roman-37"/>
     </defs>
     <g transform="translate(458.496 278.46675)scale(0.144 -0.144)">
      <use xlink:href="#BitstreamVeraSans-Roman-64"/>
      <use x="63.4765625" xlink:href="#BitstreamVeraSans-Roman-3d"/>
      <use x="147.265625" xlink:href="#BitstreamVeraSans-Roman-37"/>
      <use x="210.888671875" xlink:href="#BitstreamVeraSans-Roman-30"/>
     </g>
    </g>
    <g id="line2d_69">
     <path d="
M422.496 294.563
L442.656 294.563" style="fill:none;stroke:#bf00bf;stroke-linecap:square;"/>
    </g>
    <g id="line2d_70"/>
    <g id="text_28">
     <!-- d=80 -->
     <g transform="translate(458.496 299.60325)scale(0.144 -0.144)">
      <use xlink:href="#BitstreamVeraSans-Roman-64"/>
      <use x="63.4765625" xlink:href="#BitstreamVeraSans-Roman-3d"/>
      <use x="147.265625" xlink:href="#BitstreamVeraSans-Roman-38"/>
      <use x="210.888671875" xlink:href="#BitstreamVeraSans-Roman-30"/>
     </g>
    </g>
    <g id="line2d_71">
     <path d="
M422.496 315.7
L442.656 315.7" style="fill:none;stroke:#bfbf00;stroke-linecap:square;"/>
    </g>
    <g id="line2d_72"/>
    <g id="text_29">
     <!-- d=90 -->
     <defs>
      <path d="
M10.9844 1.51562
L10.9844 10.5
Q14.7031 8.73438 18.5 7.8125
Q22.3125 6.89062 25.9844 6.89062
Q35.75 6.89062 40.8906 13.4531
Q46.0469 20.0156 46.7812 33.4062
Q43.9531 29.2031 39.5938 26.9531
Q35.25 24.7031 29.9844 24.7031
Q19.0469 24.7031 12.6719 31.3125
Q6.29688 37.9375 6.29688 49.4219
Q6.29688 60.6406 12.9375 67.4219
Q19.5781 74.2188 30.6094 74.2188
Q43.2656 74.2188 49.9219 64.5156
Q56.5938 54.8281 56.5938 36.375
Q56.5938 19.1406 48.4062 8.85938
Q40.2344 -1.42188 26.4219 -1.42188
Q22.7031 -1.42188 18.8906 -0.6875
Q15.0938 0.046875 10.9844 1.51562
M30.6094 32.4219
Q37.25 32.4219 41.125 36.9531
Q45.0156 41.5 45.0156 49.4219
Q45.0156 57.2812 41.125 61.8438
Q37.25 66.4062 30.6094 66.4062
Q23.9688 66.4062 20.0938 61.8438
Q16.2188 57.2812 16.2188 49.4219
Q16.2188 41.5 20.0938 36.9531
Q23.9688 32.4219 30.6094 32.4219" id="BitstreamVeraSans-Roman-39"/>
     </defs>
     <g transform="translate(458.496 320.73975)scale(0.144 -0.144)">
      <use xlink:href="#BitstreamVeraSans-Roman-64"/>
      <use x="63.4765625" xlink:href="#BitstreamVeraSans-Roman-3d"/>
      <use x="147.265625" xlink:href="#BitstreamVeraSans-Roman-39"/>
      <use x="210.888671875" xlink:href="#BitstreamVeraSans-Roman-30"/>
     </g>
    </g>
    <g id="line2d_73">
     <path d="
M422.496 336.836
L442.656 336.836" style="fill:none;stroke:#000000;stroke-linecap:square;"/>
    </g>
    <g id="line2d_74"/>
    <g id="text_30">
     <!-- d=100 -->
     <g transform="translate(458.496 341.87625)scale(0.144 -0.144)">
      <use xlink:href="#BitstreamVeraSans-Roman-64"/>
      <use x="63.4765625" xlink:href="#BitstreamVeraSans-Roman-3d"/>
      <use x="147.265625" xlink:href="#BitstreamVeraSans-Roman-31"/>
      <use x="210.888671875" xlink:href="#BitstreamVeraSans-Roman-30"/>
      <use x="274.51171875" xlink:href="#BitstreamVeraSans-Roman-30"/>
     </g>
    </g>
   </g>
  </g>
 </g>
 <defs>
  <clipPath id="p7ff5b81e1d">
   <rect height="345.6" width="446.4" x="72.0" y="43.2"/>
  </clipPath>
 </defs>
</svg>
