<?xml version="1.0" encoding="UTF-8" standalone="no"?>
<!-- Created with matplotlib (http://matplotlib.sourceforge.net/) -->

<svg
   xmlns:dc="http://purl.org/dc/elements/1.1/"
   xmlns:cc="http://creativecommons.org/ns#"
   xmlns:rdf="http://www.w3.org/1999/02/22-rdf-syntax-ns#"
   xmlns:svg="http://www.w3.org/2000/svg"
   xmlns="http://www.w3.org/2000/svg"
   xmlns:xlink="http://www.w3.org/1999/xlink"
   xmlns:sodipodi="http://sodipodi.sourceforge.net/DTD/sodipodi-0.dtd"
   xmlns:inkscape="http://www.inkscape.org/namespaces/inkscape"
   width="320.9375"
   height="246.40623"
   viewBox="0 0 256.75001 197.12499"
   version="1.1"
   id="svg1"
   inkscape:version="0.48.3.1 r9886"
   sodipodi:docname="overfitting.svg">
  <metadata
     id="metadata540">
    <rdf:RDF>
      <cc:Work
         rdf:about="">
        <dc:format>image/svg+xml</dc:format>
        <dc:type
           rdf:resource="http://purl.org/dc/dcmitype/StillImage" />
      </cc:Work>
    </rdf:RDF>
  </metadata>
  <defs
     id="defs538">
    <clipPath
       id="p957fb0a461ac6969d74a0e603ca140af-9">
      <rect
         x="34.560001"
         y="21.6"
         width="230.39999"
         height="172.8"
         id="rect16-2" />
    </clipPath>
  </defs>
  <sodipodi:namedview
     pagecolor="#ffffff"
     bordercolor="#666666"
     borderopacity="1"
     objecttolerance="10"
     gridtolerance="10"
     guidetolerance="10"
     inkscape:pageopacity="0"
     inkscape:pageshadow="2"
     inkscape:window-width="1909"
     inkscape:window-height="993"
     id="namedview536"
     showgrid="false"
     fit-margin-top="0"
     fit-margin-left="0"
     fit-margin-right="0"
     fit-margin-bottom="0"
     inkscape:zoom="2.1333333"
     inkscape:cx="140.25967"
     inkscape:cy="95.191392"
     inkscape:window-x="0"
     inkscape:window-y="27"
     inkscape:window-maximized="1"
     inkscape:current-layer="axes1" />
  <g
     id="figure1"
     transform="translate(-21.5625,-10.843754)">
    <g
       id="axes1">
      <rect
         style="color:#000000;fill:#ffffff;stroke:#ffffff;stroke-width:1;stroke-linecap:square;stroke-linejoin:miter;stroke-miterlimit:4;stroke-opacity:1;stroke-dasharray:none;stroke-dashoffset:0;marker:none;visibility:visible;display:inline;overflow:visible;enable-background:accumulate"
         id="rect3558"
         width="255.74998"
         height="196.12498"
         x="22.050001"
         y="11.351875"
         rx="0.00017673246"
         ry="0.00017331152" />
      <path
         style="fill:#ffffff"
         d="m 34.56,194.4 230.4,0 0,-172.8 -230.4,0 0,172.8"
         id="path7"
         inkscape:connector-curvature="0" />
      <g
         id="points"
         inkscape:label="#line2d1">
        <defs
           id="defs10">
          <path
             id="m20ae8964a0d076a3bfa1ef94eb082b41"
             d="M 0,3 C 0.7956093,3 1.5587396,2.6839011 2.1213203,2.1213203 2.6839011,1.5587396 3,0.7956093 3,0 3,-0.7956093 2.6839011,-1.5587396 2.1213203,-2.1213203 1.5587396,-2.6839011 0.7956093,-3 0,-3 -0.7956093,-3 -1.5587396,-2.6839011 -2.1213203,-2.1213203 -2.6839011,-1.5587396 -3,-0.7956093 -3,0 -3,0.7956093 -2.6839011,1.5587396 -2.1213203,2.1213203 -1.5587396,2.6839011 -0.7956093,3 0,3 z"
             inkscape:connector-curvature="0" />
        </defs>
        <defs
           id="defs13">
          <clipPath
             id="p957fb0a461ac6969d74a0e603ca140af">
            <rect
               x="34.560001"
               y="21.6"
               width="230.39999"
               height="172.8"
               id="rect16" />
          </clipPath>
        </defs>
        <g
           clip-path="url(#p957fb0a461ac6969d74a0e603ca140af)"
           id="g18">
          <use
             style="fill:#0000ff;stroke:#000000;stroke-width:0.5;stroke-linecap:butt;stroke-linejoin:miter"
             xlink:href="#m20ae8964a0d076a3bfa1ef94eb082b41"
             x="34.560001"
             y="176.2688"
             id="use20"
             width="576"
             height="216" />
          <use
             style="fill:#0000ff;stroke:#000000;stroke-width:0.5;stroke-linecap:butt;stroke-linejoin:miter"
             xlink:href="#m20ae8964a0d076a3bfa1ef94eb082b41"
             x="46.080002"
             y="131.8828"
             id="use22"
             width="576"
             height="216" />
          <use
             style="fill:#0000ff;stroke:#000000;stroke-width:0.5;stroke-linecap:butt;stroke-linejoin:miter"
             xlink:href="#m20ae8964a0d076a3bfa1ef94eb082b41"
             x="57.599998"
             y="119.95669"
             id="use24"
             width="576"
             height="216" />
          <use
             style="fill:#0000ff;stroke:#000000;stroke-width:0.5;stroke-linecap:butt;stroke-linejoin:miter"
             xlink:href="#m20ae8964a0d076a3bfa1ef94eb082b41"
             x="69.120003"
             y="177.98849"
             id="use26"
             width="576"
             height="216" />
          <use
             style="fill:#0000ff;stroke:#000000;stroke-width:0.5;stroke-linecap:butt;stroke-linejoin:miter"
             xlink:href="#m20ae8964a0d076a3bfa1ef94eb082b41"
             x="80.639999"
             y="132.82373"
             id="use28"
             width="576"
             height="216" />
          <use
             style="fill:#0000ff;stroke:#000000;stroke-width:0.5;stroke-linecap:butt;stroke-linejoin:miter"
             xlink:href="#m20ae8964a0d076a3bfa1ef94eb082b41"
             x="92.160004"
             y="110.97765"
             id="use30"
             width="576"
             height="216" />
          <use
             style="fill:#0000ff;stroke:#000000;stroke-width:0.5;stroke-linecap:butt;stroke-linejoin:miter"
             xlink:href="#m20ae8964a0d076a3bfa1ef94eb082b41"
             x="103.68"
             y="117.65212"
             id="use32"
             width="576"
             height="216" />
          <use
             style="fill:#0000ff;stroke:#000000;stroke-width:0.5;stroke-linecap:butt;stroke-linejoin:miter"
             xlink:href="#m20ae8964a0d076a3bfa1ef94eb082b41"
             x="115.2"
             y="150.62898"
             id="use34"
             width="576"
             height="216" />
          <use
             style="fill:#0000ff;stroke:#000000;stroke-width:0.5;stroke-linecap:butt;stroke-linejoin:miter"
             xlink:href="#m20ae8964a0d076a3bfa1ef94eb082b41"
             x="126.72"
             y="115.32984"
             id="use36"
             width="576"
             height="216" />
          <use
             style="fill:#0000ff;stroke:#000000;stroke-width:0.5;stroke-linecap:butt;stroke-linejoin:miter"
             xlink:href="#m20ae8964a0d076a3bfa1ef94eb082b41"
             x="138.24001"
             y="79.788979"
             id="use38"
             width="576"
             height="216" />
          <use
             style="fill:#0000ff;stroke:#000000;stroke-width:0.5;stroke-linecap:butt;stroke-linejoin:miter"
             xlink:href="#m20ae8964a0d076a3bfa1ef94eb082b41"
             x="149.75999"
             y="92.083328"
             id="use40"
             width="576"
             height="216" />
          <use
             style="fill:#0000ff;stroke:#000000;stroke-width:0.5;stroke-linecap:butt;stroke-linejoin:miter"
             xlink:href="#m20ae8964a0d076a3bfa1ef94eb082b41"
             x="161.28"
             y="90.583336"
             id="use42"
             width="576"
             height="216" />
          <use
             style="fill:#0000ff;stroke:#000000;stroke-width:0.5;stroke-linecap:butt;stroke-linejoin:miter"
             xlink:href="#m20ae8964a0d076a3bfa1ef94eb082b41"
             x="172.8"
             y="25.61932"
             id="use44"
             width="576"
             height="216" />
          <use
             style="fill:#0000ff;stroke:#000000;stroke-width:0.5;stroke-linecap:butt;stroke-linejoin:miter"
             xlink:href="#m20ae8964a0d076a3bfa1ef94eb082b41"
             x="184.32001"
             y="100.30145"
             id="use46"
             width="576"
             height="216" />
          <use
             style="fill:#0000ff;stroke:#000000;stroke-width:0.5;stroke-linecap:butt;stroke-linejoin:miter"
             xlink:href="#m20ae8964a0d076a3bfa1ef94eb082b41"
             x="195.84"
             y="64.000771"
             id="use48"
             width="576"
             height="216" />
          <use
             style="fill:#0000ff;stroke:#000000;stroke-width:0.5;stroke-linecap:butt;stroke-linejoin:miter"
             xlink:href="#m20ae8964a0d076a3bfa1ef94eb082b41"
             x="207.36"
             y="56.919827"
             id="use50"
             width="576"
             height="216" />
          <use
             style="fill:#0000ff;stroke:#000000;stroke-width:0.5;stroke-linecap:butt;stroke-linejoin:miter"
             xlink:href="#m20ae8964a0d076a3bfa1ef94eb082b41"
             x="218.88"
             y="118.59582"
             id="use52"
             width="576"
             height="216" />
          <use
             style="fill:#0000ff;stroke:#000000;stroke-width:0.5;stroke-linecap:butt;stroke-linejoin:miter"
             xlink:href="#m20ae8964a0d076a3bfa1ef94eb082b41"
             x="230.39999"
             y="41.039749"
             id="use54"
             width="576"
             height="216" />
          <use
             style="fill:#0000ff;stroke:#000000;stroke-width:0.5;stroke-linecap:butt;stroke-linejoin:miter"
             xlink:href="#m20ae8964a0d076a3bfa1ef94eb082b41"
             x="241.92"
             y="59.002941"
             id="use56"
             width="576"
             height="216" />
          <use
             style="fill:#0000ff;stroke:#000000;stroke-width:0.5;stroke-linecap:butt;stroke-linejoin:miter"
             xlink:href="#m20ae8964a0d076a3bfa1ef94eb082b41"
             x="253.44"
             y="122.23962"
             id="use58"
             width="576"
             height="216" />
        </g>
      </g>
      <g
         id="piecewise"
         inkscape:label="#line2d3">
        <path
           style="fill:none;stroke:#ffa500;stroke-width:1;stroke-linecap:square;stroke-linejoin:miter"
           clip-path="url(#p957fb0a461ac6969d74a0e603ca140af)"
           d="m 34.56,176.36288 11.52,-45.3689 11.3325,-11.11932 11.895,57.31951 12.27,-44.26308 10.5825,-24.3998 11.52,9.88487 11.3325,32.23528 11.895,-35.64046 11.895,-36.226102 11.895,12.250622 10.9575,0.2364 11.895,-65.756288 10.77,74.327524 11.3325,-36.858327 12.27,-6.624622 10.395,62.436773 L 230.4,40.252474 242.4825,58.740211 253.44,122.44444"
           id="path64"
           inkscape:connector-curvature="0"
           sodipodi:nodetypes="cccccccccccccccccccc" />
      </g>
      <g
         id="matplotlib.axis1">
        <g
           id="xtick1">
          <g
             id="line2d4">
            <defs
               id="defs69">
              <path
                 id="mffffbd93ab9c4a8848ec339ada90541e"
                 d="M 0,0 0,-4"
                 inkscape:connector-curvature="0" />
            </defs>
            <g
               id="g72">
              <use
                 style="fill:none;stroke:#000000;stroke-width:0.5;stroke-linecap:butt;stroke-linejoin:miter"
                 xlink:href="#mffffbd93ab9c4a8848ec339ada90541e"
                 x="34.560001"
                 y="194.39999"
                 id="use74"
                 width="576"
                 height="216" />
            </g>
          </g>
          <g
             id="line2d5">
            <defs
               id="defs77">
              <path
                 id="m55446021c8a568fc6cf5567925c8a1ef"
                 d="M 0,0 0,4"
                 inkscape:connector-curvature="0" />
            </defs>
            <g
               id="g80">
              <use
                 style="fill:none;stroke:#000000;stroke-width:0.5;stroke-linecap:butt;stroke-linejoin:miter"
                 xlink:href="#m55446021c8a568fc6cf5567925c8a1ef"
                 x="34.560001"
                 y="21.6"
                 id="use82"
                 width="576"
                 height="216" />
            </g>
          </g>
          <defs
             id="defs84">
            <path
               id="c_139293c3576e2a5eaff9a02b9ab719e6"
               d="m 10.59375,-35.5 62.59375,0 0,8.296875 -62.59375,0 z"
               inkscape:connector-curvature="0" />
            <path
               id="c_eaed548a39c8bfc1ad9c7a767102867e"
               d="m 19.1875,-8.296875 34.421875,0 0,8.296875 -46.28125,0 0,-8.296875 q 5.609375,-5.8125 15.296875,-15.59375 9.703125,-9.796875 12.1875,-12.640625 4.734375,-5.3125 6.609375,-9 1.890625,-3.6875 1.890625,-7.25 0,-5.8125 -4.078125,-9.46875 -4.078125,-3.671875 -10.625,-3.671875 -4.640625,0 -9.796875,1.609375 -5.140625,1.609375 -11,4.890625 l 0,-9.96875 Q 13.765625,-71.78125 18.9375,-73 q 5.1875,-1.21875 9.484375,-1.21875 11.328125,0 18.0625,5.671875 6.734375,5.65625 6.734375,15.125 0,4.5 -1.6875,8.53125 -1.671875,4.015625 -6.125,9.484375 -1.21875,1.421875 -7.765625,8.1875 -6.53125,6.765625 -18.453125,18.921875"
               inkscape:connector-curvature="0" />
          </defs>
        </g>
        <g
           id="xtick2">
          <g
             id="line2d6">
            <g
               id="g96">
              <use
                 style="fill:none;stroke:#000000;stroke-width:0.5;stroke-linecap:butt;stroke-linejoin:miter"
                 xlink:href="#mffffbd93ab9c4a8848ec339ada90541e"
                 x="92.160004"
                 y="194.39999"
                 id="use98"
                 width="576"
                 height="216" />
            </g>
          </g>
          <g
             id="line2d7">
            <g
               id="g101">
              <use
                 style="fill:none;stroke:#000000;stroke-width:0.5;stroke-linecap:butt;stroke-linejoin:miter"
                 xlink:href="#m55446021c8a568fc6cf5567925c8a1ef"
                 x="92.160004"
                 y="21.6"
                 id="use103"
                 width="576"
                 height="216" />
            </g>
          </g>
          <defs
             id="defs105">
            <path
               id="c_2322e4f977aa11305e2465866d88750f"
               d="m 12.40625,-8.296875 16.109375,0 0,-55.625 -17.53125,3.515625 0,-8.984375 17.4375,-3.515625 9.859375,0 0,64.609375 16.109375,0 0,8.296875 -41.984375,0 z"
               inkscape:connector-curvature="0" />
          </defs>
        </g>
        <g
           id="xtick3">
          <g
             id="line2d8">
            <g
               id="g116">
              <use
                 style="fill:none;stroke:#000000;stroke-width:0.5;stroke-linecap:butt;stroke-linejoin:miter"
                 xlink:href="#mffffbd93ab9c4a8848ec339ada90541e"
                 x="149.75999"
                 y="194.39999"
                 id="use118"
                 width="576"
                 height="216" />
            </g>
          </g>
          <g
             id="line2d9">
            <g
               id="g121">
              <use
                 style="fill:none;stroke:#000000;stroke-width:0.5;stroke-linecap:butt;stroke-linejoin:miter"
                 xlink:href="#m55446021c8a568fc6cf5567925c8a1ef"
                 x="149.75999"
                 y="21.6"
                 id="use123"
                 width="576"
                 height="216" />
            </g>
          </g>
          <defs
             id="defs125">
            <path
               id="c_95f14088edd5858aea2c3b4aa58e4de2"
               d="m 31.78125,-66.40625 q -7.609375,0 -11.453125,7.5 Q 16.5,-51.421875 16.5,-36.375 q 0,14.984375 3.828125,22.484375 3.84375,7.5 11.453125,7.5 7.671875,0 11.5,-7.5 3.84375,-7.5 3.84375,-22.484375 0,-15.046875 -3.84375,-22.53125 -3.828125,-7.5 -11.5,-7.5 m 0,-7.8125 q 12.265625,0 18.734375,9.703125 6.46875,9.6875 6.46875,28.140625 0,18.40625 -6.46875,28.109375 -6.46875,9.6875 -18.734375,9.6875 -12.25,0 -18.71875,-9.6875 Q 6.59375,-17.96875 6.59375,-36.375 q 0,-18.453125 6.46875,-28.140625 6.46875,-9.703125 18.71875,-9.703125"
               inkscape:connector-curvature="0" />
          </defs>
        </g>
        <g
           id="xtick4">
          <g
             id="line2d10">
            <g
               id="g134">
              <use
                 style="fill:none;stroke:#000000;stroke-width:0.5;stroke-linecap:butt;stroke-linejoin:miter"
                 xlink:href="#mffffbd93ab9c4a8848ec339ada90541e"
                 x="207.36"
                 y="194.39999"
                 id="use136"
                 width="576"
                 height="216" />
            </g>
          </g>
          <g
             id="line2d11">
            <g
               id="g139">
              <use
                 style="fill:none;stroke:#000000;stroke-width:0.5;stroke-linecap:butt;stroke-linejoin:miter"
                 xlink:href="#m55446021c8a568fc6cf5567925c8a1ef"
                 x="207.36"
                 y="21.6"
                 id="use141"
                 width="576"
                 height="216" />
            </g>
          </g>
        </g>
        <g
           id="xtick5">
          <g
             id="line2d12">
            <g
               id="g149">
              <use
                 style="fill:none;stroke:#000000;stroke-width:0.5;stroke-linecap:butt;stroke-linejoin:miter"
                 xlink:href="#mffffbd93ab9c4a8848ec339ada90541e"
                 x="264.95999"
                 y="194.39999"
                 id="use151"
                 width="576"
                 height="216" />
            </g>
          </g>
          <g
             id="line2d13">
            <g
               id="g154">
              <use
                 style="fill:none;stroke:#000000;stroke-width:0.5;stroke-linecap:butt;stroke-linejoin:miter"
                 xlink:href="#m55446021c8a568fc6cf5567925c8a1ef"
                 x="264.95999"
                 y="21.6"
                 id="use156"
                 width="576"
                 height="216" />
            </g>
          </g>
        </g>
      </g>
      <g
         id="matplotlib.axis2">
        <g
           id="ytick1">
          <g
             id="line2d14">
            <defs
               id="defs165">
              <path
                 id="m2d700b5b5d738bf2751cd81726959973"
                 d="M 0,0 4,0"
                 inkscape:connector-curvature="0" />
            </defs>
            <g
               id="g168">
              <use
                 style="fill:none;stroke:#000000;stroke-width:0.5;stroke-linecap:butt;stroke-linejoin:miter"
                 xlink:href="#m2d700b5b5d738bf2751cd81726959973"
                 x="34.560001"
                 y="194.39999"
                 id="use170"
                 width="576"
                 height="216" />
            </g>
          </g>
          <g
             id="line2d15">
            <defs
               id="defs173">
              <path
                 id="mb380ebd9df8a07a3be12f7447ef9bdd8"
                 d="M 0,0 -4,0"
                 inkscape:connector-curvature="0" />
            </defs>
            <g
               id="g176">
              <use
                 style="fill:none;stroke:#000000;stroke-width:0.5;stroke-linecap:butt;stroke-linejoin:miter"
                 xlink:href="#mb380ebd9df8a07a3be12f7447ef9bdd8"
                 x="264.95999"
                 y="194.39999"
                 id="use178"
                 width="576"
                 height="216" />
            </g>
          </g>
          <g
             style="fill:#000000"
             transform="matrix(0.12,0,0,0.12,7.27875,198.76719)"
             id="g180" />
        </g>
        <g
           id="ytick2">
          <g
             id="line2d16">
            <g
               id="g190">
              <use
                 style="fill:none;stroke:#000000;stroke-width:0.5;stroke-linecap:butt;stroke-linejoin:miter"
                 xlink:href="#m2d700b5b5d738bf2751cd81726959973"
                 x="34.560001"
                 y="151.2"
                 id="use192"
                 width="576"
                 height="216" />
            </g>
          </g>
          <g
             id="line2d17">
            <g
               id="g195">
              <use
                 style="fill:none;stroke:#000000;stroke-width:0.5;stroke-linecap:butt;stroke-linejoin:miter"
                 xlink:href="#mb380ebd9df8a07a3be12f7447ef9bdd8"
                 x="264.95999"
                 y="151.2"
                 id="use197"
                 width="576"
                 height="216" />
            </g>
          </g>
          <defs
             id="defs199">
            <path
               id="c_2f869442ca5f4cfa589132f61f547ba5"
               d="m 10.796875,-72.90625 38.71875,0 0,8.3125 -29.6875,0 0,17.859375 q 2.140625,-0.734375 4.28125,-1.09375 2.15625,-0.359375 4.3125,-0.359375 12.203125,0 19.328125,6.6875 7.140625,6.6875 7.140625,18.109375 0,11.765625 -7.328125,18.296875 -7.328125,6.515625 -20.65625,6.515625 -4.59375,0 -9.359375,-0.78125 -4.75,-0.78125 -9.828125,-2.34375 l 0,-9.921875 q 4.390625,2.390625 9.078125,3.5625 4.6875,1.171875 9.90625,1.171875 8.453125,0 13.375,-4.4375 4.9375,-4.4375 4.9375,-12.0625 0,-7.609375 -4.9375,-12.046875 -4.921875,-4.453125 -13.375,-4.453125 -3.953125,0 -7.890625,0.875 -3.921875,0.875 -8.015625,2.734375 z"
               inkscape:connector-curvature="0" />
          </defs>
        </g>
        <g
           id="ytick3">
          <g
             id="line2d18">
            <g
               id="g210">
              <use
                 style="fill:none;stroke:#000000;stroke-width:0.5;stroke-linecap:butt;stroke-linejoin:miter"
                 xlink:href="#m2d700b5b5d738bf2751cd81726959973"
                 x="34.560001"
                 y="108"
                 id="use212"
                 width="576"
                 height="216" />
            </g>
          </g>
          <g
             id="line2d19">
            <g
               id="g215">
              <use
                 style="fill:none;stroke:#000000;stroke-width:0.5;stroke-linecap:butt;stroke-linejoin:miter"
                 xlink:href="#mb380ebd9df8a07a3be12f7447ef9bdd8"
                 x="264.95999"
                 y="108"
                 id="use217"
                 width="576"
                 height="216" />
            </g>
          </g>
        </g>
        <g
           id="ytick4">
          <g
             id="line2d20">
            <g
               id="g225">
              <use
                 style="fill:none;stroke:#000000;stroke-width:0.5;stroke-linecap:butt;stroke-linejoin:miter"
                 xlink:href="#m2d700b5b5d738bf2751cd81726959973"
                 x="34.560001"
                 y="64.800003"
                 id="use227"
                 width="576"
                 height="216" />
            </g>
          </g>
          <g
             id="line2d21">
            <g
               id="g230">
              <use
                 style="fill:none;stroke:#000000;stroke-width:0.5;stroke-linecap:butt;stroke-linejoin:miter"
                 xlink:href="#mb380ebd9df8a07a3be12f7447ef9bdd8"
                 x="264.95999"
                 y="64.800003"
                 id="use232"
                 width="576"
                 height="216" />
            </g>
          </g>
        </g>
        <g
           id="ytick5">
          <g
             id="line2d22">
            <g
               id="g240">
              <use
                 style="fill:none;stroke:#000000;stroke-width:0.5;stroke-linecap:butt;stroke-linejoin:miter"
                 xlink:href="#m2d700b5b5d738bf2751cd81726959973"
                 x="34.560001"
                 y="21.6"
                 id="use242"
                 width="576"
                 height="216" />
            </g>
          </g>
          <g
             id="line2d23">
            <g
               id="g245">
              <use
                 style="fill:none;stroke:#000000;stroke-width:0.5;stroke-linecap:butt;stroke-linejoin:miter"
                 xlink:href="#mb380ebd9df8a07a3be12f7447ef9bdd8"
                 x="264.95999"
                 y="21.6"
                 id="use247"
                 width="576"
                 height="216" />
            </g>
          </g>
        </g>
      </g>
      <path
         style="fill:none;stroke:#000000;stroke-width:1;stroke-linecap:square;stroke-linejoin:miter"
         d="m 34.56,194.4 230.4,0 0,-172.8 -230.4,0 0,172.8"
         id="path255"
         inkscape:connector-curvature="0" />
      <defs
         id="defs257">
        <path
           id="c_ed080b6b0a058be2fa17307500ef35a6"
           d="m -0.296875,-72.90625 61.671875,0 0,8.3125 -25.875,0 0,64.59375 -9.90625,0 0,-64.59375 -25.890625,0 z"
           inkscape:connector-curvature="0" />
        <path
           id="c_4118e466f114a602b61b3a6298d386e9"
           d="m 41.109375,-46.296875 q -1.515625,-0.875 -3.296875,-1.28125 Q 36.03125,-48 33.890625,-48 q -7.625,0 -11.703125,4.953125 -4.078125,4.953125 -4.078125,14.234375 l 0,28.8125 -9.03125,0 0,-54.6875 9.03125,0 0,8.5 q 2.84375,-4.984375 7.375,-7.390625 Q 30.03125,-56 36.53125,-56 q 0.921875,0 2.046875,0.125 1.125,0.109375 2.484375,0.359375 z"
           inkscape:connector-curvature="0" />
        <path
           id="c_97cced06352dabd27facc1bd04e1f2f5"
           d="m 34.28125,-27.484375 q -10.890625,0 -15.09375,2.484375 -4.203125,2.484375 -4.203125,8.5 0,4.78125 3.15625,7.59375 3.15625,2.796875 8.5625,2.796875 7.484375,0 12,-5.296875 4.515625,-5.296875 4.515625,-14.078125 l 0,-2 z m 17.921875,-3.71875 0,31.203125 -8.984375,0 0,-8.296875 q -3.078125,4.96875 -7.671875,7.34375 -4.59375,2.375 -11.234375,2.375 -8.390625,0 -13.359375,-4.71875 Q 6,-8.015625 6,-15.921875 q 0,-9.21875 6.171875,-13.90625 6.1875,-4.6875 18.4375,-4.6875 l 12.609375,0 0,-0.890625 q 0,-6.203125 -4.078125,-9.59375 -4.078125,-3.390625 -11.453125,-3.390625 -4.6875,0 -9.140625,1.125 -4.4375,1.125 -8.53125,3.375 l 0,-8.3125 q 4.921875,-1.90625 9.5625,-2.84375 Q 24.21875,-56 28.609375,-56 q 11.875,0 17.734375,6.15625 5.859375,6.140625 5.859375,18.640625"
           inkscape:connector-curvature="0" />
        <path
           id="c_8d6ee5dadaaa9460f50eedd5d62d2be4"
           d="m 9.421875,-54.6875 8.984375,0 0,54.6875 -8.984375,0 z m 0,-21.296875 8.984375,0 0,11.390625 -8.984375,0 z"
           inkscape:connector-curvature="0" />
        <path
           id="c_ea4b10e8bc619072d4c12d4803cf87f6"
           d="m 54.890625,-33.015625 0,33.015625 -8.984375,0 0,-32.71875 q 0,-7.765625 -3.03125,-11.609375 -3.03125,-3.859375 -9.078125,-3.859375 -7.28125,0 -11.484375,4.640625 -4.203125,4.625 -4.203125,12.640625 l 0,30.90625 -9.03125,0 0,-54.6875 9.03125,0 0,8.5 q 3.234375,-4.9375 7.59375,-7.375 4.375,-2.4375 10.09375,-2.4375 9.421875,0 14.25,5.828125 4.84375,5.828125 4.84375,17.15625"
           inkscape:connector-curvature="0" />
        <path
           id="c_401cc870e2737ac21a21bd24c8b21204"
           d="m 45.40625,-27.984375 q 0,-9.765625 -4.03125,-15.125 -4.015625,-5.375 -11.296875,-5.375 -7.21875,0 -11.25,5.375 -4.03125,5.359375 -4.03125,15.125 0,9.71875 4.03125,15.09375 4.03125,5.375 11.25,5.375 7.28125,0 11.296875,-5.375 4.03125,-5.375 4.03125,-15.09375 m 8.984375,21.203125 q 0,13.953125 -6.203125,20.765625 -6.1875,6.8125 -18.984375,6.8125 -4.734375,0 -8.9375,-0.703125 -4.203125,-0.703125 -8.15625,-2.171875 l 0,-8.734375 q 3.953125,2.140625 7.8125,3.15625 3.859375,1.03125 7.859375,1.03125 8.84375,0 13.234375,-4.609375 4.390625,-4.609375 4.390625,-13.9375 l 0,-4.453125 Q 42.625,-4.78125 38.28125,-2.390625 33.9375,0 27.875,0 17.828125,0 11.671875,-7.65625 q -6.15625,-7.671875 -6.15625,-20.328125 0,-12.6875 6.15625,-20.34375 Q 17.828125,-56 27.875,-56 q 6.0625,0 10.40625,2.390625 4.34375,2.390625 7.125,7.21875 l 0,-8.296875 8.984375,0 z"
           inkscape:connector-curvature="0" />
        <path
           id="c_d41d8cd98f00b204e9800998ecf8427e"
           d=""
           inkscape:connector-curvature="0" />
        <path
           id="c_172c370045494a373b8cd42e76c2a247"
           d="m 44.28125,-53.078125 0,8.5 Q 40.484375,-46.53125 36.375,-47.5 q -4.09375,-0.984375 -8.5,-0.984375 -6.6875,0 -10.03125,2.046875 -3.34375,2.046875 -3.34375,6.15625 0,3.125 2.390625,4.90625 2.390625,1.78125 9.625,3.390625 l 3.078125,0.6875 q 9.5625,2.046875 13.59375,5.78125 4.03125,3.734375 4.03125,10.421875 0,7.625 -6.03125,12.078125 -6.03125,4.4375 -16.578125,4.4375 -4.390625,0 -9.15625,-0.859375 Q 10.6875,-0.296875 5.421875,-2 l 0,-9.28125 q 4.984375,2.59375 9.8125,3.890625 4.828125,1.28125 9.578125,1.28125 6.34375,0 9.75,-2.171875 3.421875,-2.171875 3.421875,-6.125 0,-3.65625 -2.46875,-5.609375 -2.453125,-1.953125 -10.8125,-3.765625 l -3.125,-0.734375 q -8.34375,-1.75 -12.0625,-5.390625 -3.703125,-3.640625 -3.703125,-9.984375 0,-7.71875 5.46875,-11.90625 Q 16.75,-56 26.8125,-56 q 4.96875,0 9.359375,0.734375 4.40625,0.71875 8.109375,2.1875"
           inkscape:connector-curvature="0" />
        <path
           id="c_9ba5f7895f8afffb5c1e159e8b3594f8"
           d="m 56.203125,-29.59375 0,4.390625 -41.3125,0 q 0.59375,9.28125 5.59375,14.140625 5,4.859375 13.9375,4.859375 5.171875,0 10.03125,-1.265625 4.859375,-1.265625 9.65625,-3.8125 l 0,8.5 q -4.84375,2.046875 -9.921875,3.125 -5.078125,1.078125 -10.296875,1.078125 -13.09375,0 -20.734375,-7.609375 -7.640625,-7.625 -7.640625,-20.625 0,-13.421875 7.25,-21.296875 Q 20.015625,-56 32.328125,-56 q 11.03125,0 17.453125,7.109375 6.421875,7.09375 6.421875,19.296875 m -8.984375,-2.640625 q -0.09375,-7.359375 -4.125,-11.75 -4.03125,-4.40625 -10.671875,-4.40625 -7.515625,0 -12.03125,4.25 -4.515625,4.25 -5.203125,11.96875 z"
           inkscape:connector-curvature="0" />
        <path
           id="c_7719cac8f98cf2bca3e99fb2bb21e785"
           d="m 18.3125,-70.21875 0,15.53125 18.5,0 0,6.984375 -18.5,0 0,29.6875 q 0,6.6875 1.828125,8.59375 1.828125,1.90625 7.453125,1.90625 l 9.21875,0 0,7.515625 -9.21875,0 Q 17.1875,0 13.234375,-3.875 9.28125,-7.765625 9.28125,-18.015625 l 0,-29.6875 -6.59375,0 0,-6.984375 6.59375,0 0,-15.53125 z"
           inkscape:connector-curvature="0" />
      </defs>
      <path
         style="color:#000000;fill:none;stroke:#ff0000;stroke-width:1.25;stroke-linecap:square;stroke-linejoin:miter;stroke-miterlimit:4;stroke-opacity:1;stroke-dasharray:none;stroke-dashoffset:0;marker:none;visibility:visible;display:inline;overflow:visible;enable-background:accumulate"
         d="M 37.734375,187.16055 309.84375,15.363678"
         id="linear"
         inkscape:connector-curvature="0"
         transform="matrix(0.80000001,0,0,0.80000001,8.55,17.060934)"
         inkscape:label="#path3531"
         sodipodi:nodetypes="cc" />
      <g
         id="ok"
         inkscape:label="#line2d2">
        <path
           style="fill:none;stroke:#008000;stroke-width:1;stroke-linecap:square;stroke-linejoin:miter"
           clip-path="url(#p957fb0a461ac6969d74a0e603ca140af)"
           d="m 34.56,152.62626 11.52,-0.19379 11.52,-2.58045 11.52,-4.5979 11.52,-6.24616 11.52,-7.52521 11.52,-8.43508 11.52,-8.97574 11.52,-9.14721 11.52,-8.949474 11.52,-8.382543 11.52,-7.446415 11.52,-6.141088 11.52,-4.466564 11.52,-2.422841 11.52,-0.0099 11.52,2.772197 11.52,5.923512 11.52,9.444027 11.52,13.333738"
           id="path61"
           inkscape:connector-curvature="0" />
      </g>
    </g>
  </g>
</svg>
